<?xml version="1.0" encoding="utf-8" standalone="no"?>
<!DOCTYPE svg PUBLIC "-//W3C//DTD SVG 1.1//EN"
  "http://www.w3.org/Graphics/SVG/1.1/DTD/svg11.dtd">
<!-- Created with matplotlib (http://matplotlib.org/) -->
<svg height="288pt" version="1.1" viewBox="0 0 432 288" width="432pt" xmlns="http://www.w3.org/2000/svg" xmlns:xlink="http://www.w3.org/1999/xlink">
 <defs>
  <style type="text/css">
*{stroke-linecap:butt;stroke-linejoin:round;}
  </style>
 </defs>
 <g id="figure_1">
  <g id="patch_1">
   <path d="M 0 288 
L 432 288 
L 432 0 
L 0 0 
z
" style="fill:#ffffff;"/>
  </g>
  <g id="axes_1">
   <g id="patch_2">
    <path d="M 54 252 
L 388.8 252 
L 388.8 34.56 
L 54 34.56 
z
" style="fill:#ffffff;"/>
   </g>
   <g id="matplotlib.axis_1">
    <g id="xtick_1">
     <g id="line2d_1">
      <defs>
       <path d="M 0 0 
L 0 -3.5 
" id="ma33b0b52a6" style="stroke:#000000;stroke-width:0.8;"/>
      </defs>
      <g>
       <use style="stroke:#000000;stroke-width:0.8;" x="69.218182" xlink:href="#ma33b0b52a6" y="252"/>
      </g>
     </g>
     <g id="text_1">
      <text style="font-family:Arial;font-size:18px;font-style:normal;font-weight:normal;text-anchor:middle;" transform="rotate(-0, 69.218182, 268.384063)" x="69.218182" y="268.384063">0.0</text>
     </g>
    </g>
    <g id="xtick_2">
     <g id="line2d_2">
      <g>
       <use style="stroke:#000000;stroke-width:0.8;" x="130.090909" xlink:href="#ma33b0b52a6" y="252"/>
      </g>
     </g>
     <g id="text_2">
      <text style="font-family:Arial;font-size:18px;font-style:normal;font-weight:normal;text-anchor:middle;" transform="rotate(-0, 130.090909, 268.384063)" x="130.090909" y="268.384063">0.2</text>
     </g>
    </g>
    <g id="xtick_3">
     <g id="line2d_3">
      <g>
       <use style="stroke:#000000;stroke-width:0.8;" x="190.963636" xlink:href="#ma33b0b52a6" y="252"/>
      </g>
     </g>
     <g id="text_3">
      <text style="font-family:Arial;font-size:18px;font-style:normal;font-weight:normal;text-anchor:middle;" transform="rotate(-0, 190.963636, 268.384063)" x="190.963636" y="268.384063">0.4</text>
     </g>
    </g>
    <g id="xtick_4">
     <g id="line2d_4">
      <g>
       <use style="stroke:#000000;stroke-width:0.8;" x="251.836364" xlink:href="#ma33b0b52a6" y="252"/>
      </g>
     </g>
     <g id="text_4">
      <text style="font-family:Arial;font-size:18px;font-style:normal;font-weight:normal;text-anchor:middle;" transform="rotate(-0, 251.836364, 268.384063)" x="251.836364" y="268.384063">0.6</text>
     </g>
    </g>
    <g id="xtick_5">
     <g id="line2d_5">
      <g>
       <use style="stroke:#000000;stroke-width:0.8;" x="312.709091" xlink:href="#ma33b0b52a6" y="252"/>
      </g>
     </g>
     <g id="text_5">
      <text style="font-family:Arial;font-size:18px;font-style:normal;font-weight:normal;text-anchor:middle;" transform="rotate(-0, 312.709091, 268.384063)" x="312.709091" y="268.384063">0.8</text>
     </g>
    </g>
    <g id="xtick_6">
     <g id="line2d_6">
      <g>
       <use style="stroke:#000000;stroke-width:0.8;" x="373.581818" xlink:href="#ma33b0b52a6" y="252"/>
      </g>
     </g>
     <g id="text_6">
      <text style="font-family:Arial;font-size:18px;font-style:normal;font-weight:normal;text-anchor:middle;" transform="rotate(-0, 373.581818, 268.384063)" x="373.581818" y="268.384063">1.0</text>
     </g>
    </g>
    <g id="text_7">
     <text style="font-family:Arial;font-size:18px;font-style:normal;font-weight:normal;text-anchor:middle;" transform="rotate(-0, 221.4, 289.065)" x="221.4" y="289.065">Time (s)</text>
    </g>
   </g>
   <g id="matplotlib.axis_2">
    <g id="ytick_1">
     <g id="line2d_7">
      <defs>
       <path d="M 0 0 
L 3.5 0 
" id="m9120953599" style="stroke:#000000;stroke-width:0.8;"/>
      </defs>
      <g>
       <use style="stroke:#000000;stroke-width:0.8;" x="54" xlink:href="#m9120953599" y="242.116364"/>
      </g>
     </g>
     <g id="text_8">
      <text style="font-family:Arial;font-size:18px;font-style:normal;font-weight:normal;text-anchor:end;" transform="rotate(-0, 50.5, 248.558395)" x="50.5" y="248.558395">−2</text>
     </g>
    </g>
    <g id="ytick_2">
     <g id="line2d_8">
      <g>
       <use style="stroke:#000000;stroke-width:0.8;" x="54" xlink:href="#m9120953599" y="176.225455"/>
      </g>
     </g>
     <g id="text_9">
      <text style="font-family:Arial;font-size:18px;font-style:normal;font-weight:normal;text-anchor:end;" transform="rotate(-0, 50.5, 182.667486)" x="50.5" y="182.667486">0</text>
     </g>
    </g>
    <g id="ytick_3">
     <g id="line2d_9">
      <g>
       <use style="stroke:#000000;stroke-width:0.8;" x="54" xlink:href="#m9120953599" y="110.334545"/>
      </g>
     </g>
     <g id="text_10">
      <text style="font-family:Arial;font-size:18px;font-style:normal;font-weight:normal;text-anchor:end;" transform="rotate(-0, 50.5, 116.776577)" x="50.5" y="116.776577">2</text>
     </g>
    </g>
    <g id="ytick_4">
     <g id="line2d_10">
      <g>
       <use style="stroke:#000000;stroke-width:0.8;" x="54" xlink:href="#m9120953599" y="44.443636"/>
      </g>
     </g>
     <g id="text_11">
      <text style="font-family:Arial;font-size:18px;font-style:normal;font-weight:normal;text-anchor:end;" transform="rotate(-0, 50.5, 50.885668)" x="50.5" y="50.885668">4</text>
     </g>
    </g>
    <g id="text_12">
     <!-- $v_1$ (mM/s) -->
     <g transform="translate(22.017187 183.42)rotate(-90)">
      <text>
       <tspan style="font-family:DejaVu Sans;font-size:18px;font-style:oblique;font-weight:oblique;" x="0" y="-0.890625">v</tspan>
       <tspan style="font-family:DejaVu Sans;font-size:12.6px;font-style:book;font-weight:book;" x="10.652344" y="2.0625">1</tspan>
       <tspan style="font-family:Arial;font-size:18px;font-style:regular;font-weight:regular;" x="19.161035 24.162012 30.156152 45.150293 60.144434 65.14541 74.14541" y="-0.890625"> (mM/s)</tspan>
      </text>
     </g>
    </g>
   </g>
   <g id="line2d_11">
    <path clip-path="url(#pfd6f653580)" d="M 69.218182 242.116364 
L 72.261818 238.841118 
L 75.305455 235.623099 
L 78.349091 232.483191 
L 81.392727 229.43459 
L 84.436364 226.490299 
L 87.48 223.658301 
L 90.523636 220.943314 
L 93.567273 218.348561 
L 96.610909 215.875869 
L 99.654545 213.526849 
L 102.698182 211.297929 
L 105.741818 209.18789 
L 108.785455 207.192271 
L 111.829091 205.307265 
L 114.872727 203.52859 
L 117.916364 201.851469 
L 120.96 200.271506 
L 124.003636 198.783969 
L 127.047273 197.384325 
L 130.090909 196.068023 
L 133.134545 194.830724 
L 136.178182 193.668128 
L 139.221818 192.576196 
L 142.265455 191.550957 
L 145.309091 190.588604 
L 148.352727 189.685501 
L 151.396364 188.838133 
L 154.44 188.043139 
L 157.483636 187.298463 
L 160.527273 186.60132 
L 163.570909 185.948183 
L 166.614545 185.335978 
L 169.658182 184.76165 
L 172.701818 184.225229 
L 175.745455 183.722449 
L 178.789091 183.250603 
L 181.832727 182.806987 
L 184.876364 182.393522 
L 187.92 182.007109 
L 190.963636 181.645065 
L 194.007273 181.305375 
L 197.050909 180.987638 
L 200.094545 180.690456 
L 203.138182 180.411559 
L 206.181818 180.149271 
L 209.225455 179.903445 
L 212.269091 179.67418 
L 215.312727 179.459118 
L 218.356364 179.257046 
L 221.4 179.067303 
L 224.443636 178.89024 
L 227.487273 178.724061 
L 230.530909 178.567833 
L 233.574545 178.420896 
L 236.618182 178.28476 
L 239.661818 178.157602 
L 242.705455 178.038834 
L 245.749091 177.927866 
L 248.792727 177.82411 
L 251.836364 177.726977 
L 254.88 177.635879 
L 257.923636 177.550225 
L 260.967273 177.470982 
L 264.010909 177.397129 
L 267.054545 177.327815 
L 270.098182 177.26255 
L 273.141818 177.200843 
L 276.185455 177.142203 
L 279.229091 177.08614 
L 282.272727 177.032164 
L 285.316364 176.981866 
L 288.36 176.936691 
L 291.403636 176.894027 
L 294.447273 176.853577 
L 297.490909 176.815045 
L 300.534545 176.778133 
L 303.578182 176.742545 
L 306.621818 176.707984 
L 309.665455 176.674447 
L 312.709091 176.64556 
L 315.752727 176.618315 
L 318.796364 176.592573 
L 321.84 176.568198 
L 324.883636 176.545052 
L 327.927273 176.522998 
L 330.970909 176.501899 
L 334.014545 176.481618 
L 337.058182 176.463343 
L 340.101818 176.446658 
L 343.145455 176.431075 
L 346.189091 176.416528 
L 349.232727 176.402948 
L 352.276364 176.390267 
L 355.32 176.378418 
L 358.363636 176.367331 
L 361.407273 176.357034 
L 364.450909 176.34771 
L 367.494545 176.339276 
L 370.538182 176.331733 
L 373.581818 176.325081 
" style="fill:none;stroke:#0066ff;stroke-linecap:square;stroke-width:3;"/>
   </g>
   <g id="line2d_12">
    <path clip-path="url(#pfd6f653580)" d="M 69.218182 176.225455 
L 72.261818 175.082327 
L 75.305455 174.23395 
L 78.349091 173.628028 
L 81.392727 173.214991 
L 84.436364 172.956477 
L 87.48 172.819111 
L 90.523636 172.773939 
L 93.567273 172.791896 
L 96.610909 172.861476 
L 99.654545 172.962587 
L 102.698182 173.089008 
L 105.741818 173.229718 
L 108.785455 173.380312 
L 111.829091 173.535969 
L 114.872727 173.692621 
L 117.916364 173.848768 
L 120.96 174.001093 
L 124.003636 174.148767 
L 127.047273 174.290566 
L 130.090909 174.426008 
L 133.134545 174.554508 
L 136.178182 174.675611 
L 139.221818 174.789321 
L 142.265455 174.896032 
L 145.309091 174.996768 
L 148.352727 175.091242 
L 151.396364 175.179669 
L 154.44 175.262006 
L 157.483636 175.3384 
L 160.527273 175.409062 
L 163.570909 175.474694 
L 166.614545 175.537348 
L 169.658182 175.595635 
L 172.701818 175.649557 
L 175.745455 175.699113 
L 178.789091 175.744304 
L 181.832727 175.783868 
L 184.876364 175.809235 
L 187.92 175.834602 
L 190.963636 175.85997 
L 194.007273 175.885337 
L 197.050909 175.910704 
L 200.094545 175.936072 
L 203.138182 175.953743 
L 206.181818 175.971048 
L 209.225455 175.988352 
L 212.269091 176.005657 
L 215.312727 176.022962 
L 218.356364 176.040266 
L 221.4 176.049676 
L 224.443636 176.057299 
L 227.487273 176.064922 
L 230.530909 176.072545 
L 233.574545 176.080168 
L 236.618182 176.08779 
L 239.661818 176.095413 
L 242.705455 176.103036 
L 245.749091 176.110659 
L 248.792727 176.118282 
L 251.836364 176.125905 
L 254.88 176.133528 
L 257.923636 176.139046 
L 260.967273 176.14275 
L 264.010909 176.146455 
L 267.054545 176.15016 
L 270.098182 176.153864 
L 273.141818 176.157569 
L 276.185455 176.161274 
L 279.229091 176.164979 
L 282.272727 176.168683 
L 285.316364 176.172388 
L 288.36 176.176093 
L 291.403636 176.179798 
L 294.447273 176.18285 
L 297.490909 176.184038 
L 300.534545 176.185225 
L 303.578182 176.186413 
L 306.621818 176.187601 
L 309.665455 176.188789 
L 312.709091 176.189976 
L 315.752727 176.191164 
L 318.796364 176.192352 
L 321.84 176.193539 
L 324.883636 176.194727 
L 327.927273 176.195915 
L 330.970909 176.197103 
L 334.014545 176.19829 
L 337.058182 176.199478 
L 340.101818 176.200666 
L 343.145455 176.201854 
L 346.189091 176.203041 
L 349.232727 176.204229 
L 352.276364 176.205417 
L 355.32 176.206604 
L 358.363636 176.207792 
L 361.407273 176.20898 
L 364.450909 176.210168 
L 367.494545 176.211355 
L 370.538182 176.212436 
L 373.581818 176.213471 
" style="fill:none;stroke:#00aa44;stroke-linecap:square;stroke-width:3;"/>
   </g>
   <g id="line2d_13">
    <path clip-path="url(#pfd6f653580)" d="M 69.218182 110.334545 
L 72.261818 116.048234 
L 75.305455 121.343837 
L 78.349091 126.234744 
L 81.392727 130.743905 
L 84.436364 134.883028 
L 87.48 138.67356 
L 90.523636 142.147304 
L 93.567273 145.309154 
L 96.610909 148.187496 
L 99.654545 150.806235 
L 102.698182 153.185609 
L 105.741818 155.344701 
L 108.785455 157.304637 
L 111.829091 159.082196 
L 114.872727 160.694798 
L 117.916364 162.162297 
L 120.96 163.493542 
L 124.003636 164.701662 
L 127.047273 165.804521 
L 130.090909 166.804532 
L 133.134545 167.711101 
L 136.178182 168.538082 
L 139.221818 169.285755 
L 142.265455 169.961328 
L 145.309091 170.574429 
L 148.352727 171.126496 
L 151.396364 171.623559 
L 154.44 172.07237 
L 157.483636 172.473424 
L 160.527273 172.831617 
L 163.570909 173.151918 
L 166.614545 173.438669 
L 169.658182 173.69621 
L 172.701818 173.92888 
L 175.745455 174.132523 
L 178.789091 174.31448 
L 181.832727 174.478881 
L 184.876364 174.629233 
L 187.92 174.769044 
L 190.963636 174.901821 
L 194.007273 175.010115 
L 197.050909 175.108186 
L 200.094545 175.198362 
L 203.138182 175.282711 
L 206.181818 175.363302 
L 209.225455 175.441482 
L 212.269091 175.504356 
L 215.312727 175.562144 
L 218.356364 175.615836 
L 221.4 175.666421 
L 224.443636 175.71489 
L 227.487273 175.761873 
L 230.530909 175.804433 
L 233.574545 175.84389 
L 236.618182 175.880241 
L 239.661818 175.913488 
L 242.705455 175.94363 
L 245.749091 175.97106 
L 248.792727 175.997344 
L 251.836364 176.021166 
L 254.88 176.042524 
L 257.923636 176.061419 
L 260.967273 176.077852 
L 264.010909 176.092914 
L 267.054545 176.109265 
L 270.098182 176.12445 
L 273.141818 176.138469 
L 276.185455 176.151323 
L 279.229091 176.16301 
L 282.272727 176.173531 
L 285.316364 176.182885 
L 288.36 176.191074 
L 291.403636 176.198097 
L 294.447273 176.203954 
L 297.490909 176.208644 
L 300.534545 176.213449 
L 303.578182 176.219245 
L 306.621818 176.224377 
L 309.665455 176.228846 
L 312.709091 176.232651 
L 315.752727 176.235792 
L 318.796364 176.238269 
L 321.84 176.240083 
L 324.883636 176.241233 
L 327.927273 176.241719 
L 330.970909 176.241541 
L 334.014545 176.2407 
L 337.058182 176.240749 
L 340.101818 176.24171 
L 343.145455 176.242455 
L 346.189091 176.242985 
L 349.232727 176.243299 
L 352.276364 176.243397 
L 355.32 176.243279 
L 358.363636 176.242945 
L 361.407273 176.242396 
L 364.450909 176.241631 
L 367.494545 176.24065 
L 370.538182 176.239453 
L 373.581818 176.238157 
" style="fill:none;stroke:#ff2a2a;stroke-linecap:square;stroke-width:3;"/>
   </g>
   <g id="line2d_14">
    <path clip-path="url(#pfd6f653580)" d="M 69.218182 44.443636 
L 72.261818 61.47803 
L 75.305455 76.048602 
L 78.349091 88.513346 
L 81.392727 99.213996 
L 84.436364 108.412273 
L 87.48 116.346159 
L 90.523636 123.227595 
L 93.567273 129.251005 
L 96.610909 134.552536 
L 99.654545 139.220385 
L 102.698182 143.348499 
L 105.741818 146.983902 
L 108.785455 150.18895 
L 111.829091 153.01591 
L 114.872727 155.505247 
L 117.916364 157.706686 
L 120.96 159.661629 
L 124.003636 161.385722 
L 127.047273 162.927536 
L 130.090909 164.318454 
L 133.134545 165.540842 
L 136.178182 166.640967 
L 139.221818 167.64179 
L 142.265455 168.522566 
L 145.309091 169.315767 
L 148.352727 170.036721 
L 151.396364 170.674101 
L 154.44 171.247028 
L 157.483636 171.765473 
L 160.527273 172.229633 
L 163.570909 172.646427 
L 166.614545 173.020851 
L 169.658182 173.357528 
L 172.701818 173.659645 
L 175.745455 173.929526 
L 178.789091 174.172532 
L 181.832727 174.392208 
L 184.876364 174.590616 
L 187.92 174.770203 
L 190.963636 174.933093 
L 194.007273 175.081087 
L 197.050909 175.210061 
L 200.094545 175.320578 
L 203.138182 175.417468 
L 206.181818 175.502243 
L 209.225455 175.576417 
L 212.269091 175.641503 
L 215.312727 175.698122 
L 218.356364 175.746747 
L 221.4 175.789685 
L 224.443636 175.828299 
L 227.487273 175.863954 
L 230.530909 175.898012 
L 233.574545 175.931659 
L 236.618182 175.963682 
L 239.661818 175.993586 
L 242.705455 176.021372 
L 245.749091 176.047041 
L 248.792727 176.070592 
L 251.836364 176.092024 
L 254.88 176.111339 
L 257.923636 176.128537 
L 260.967273 176.143616 
L 264.010909 176.150944 
L 267.054545 176.155104 
L 270.098182 176.159264 
L 273.141818 176.163424 
L 276.185455 176.167584 
L 279.229091 176.171744 
L 282.272727 176.175904 
L 285.316364 176.180064 
L 288.36 176.184224 
L 291.403636 176.188239 
L 294.447273 176.190296 
L 297.490909 176.192353 
L 300.534545 176.19441 
L 303.578182 176.196467 
L 306.621818 176.198524 
L 309.665455 176.200581 
L 312.709091 176.202638 
L 315.752727 176.204695 
L 318.796364 176.206752 
L 321.84 176.208152 
L 324.883636 176.208816 
L 327.927273 176.209479 
L 330.970909 176.210143 
L 334.014545 176.210807 
L 337.058182 176.21147 
L 340.101818 176.212134 
L 343.145455 176.212798 
L 346.189091 176.213461 
L 349.232727 176.214125 
L 352.276364 176.214789 
L 355.32 176.215453 
L 358.363636 176.216116 
L 361.407273 176.21678 
L 364.450909 176.217444 
L 367.494545 176.218107 
L 370.538182 176.218771 
L 373.581818 176.219435 
" style="fill:none;stroke:#813d9c;stroke-linecap:square;stroke-width:3;"/>
   </g>
   <g id="patch_3">
    <path d="M 54 252 
L 54 34.56 
" style="fill:none;stroke:#000000;stroke-linecap:square;stroke-linejoin:miter;stroke-width:0.8;"/>
   </g>
   <g id="patch_4">
    <path d="M 388.8 252 
L 388.8 34.56 
" style="fill:none;stroke:#000000;stroke-linecap:square;stroke-linejoin:miter;stroke-width:0.8;"/>
   </g>
   <g id="patch_5">
    <path d="M 54 252 
L 388.8 252 
" style="fill:none;stroke:#000000;stroke-linecap:square;stroke-linejoin:miter;stroke-width:0.8;"/>
   </g>
   <g id="patch_6">
    <path d="M 54 34.56 
L 388.8 34.56 
" style="fill:none;stroke:#000000;stroke-linecap:square;stroke-linejoin:miter;stroke-width:0.8;"/>
   </g>
   <g id="legend_1">
    <g id="line2d_15">
     <path d="M 281.14 52.3575 
L 309.14 52.3575 
" style="fill:none;stroke:#0066ff;stroke-linecap:square;stroke-width:3;"/>
    </g>
    <g id="line2d_16"/>
    <g id="text_13">
     <!-- $K_X = 1.0$ -->
     <g transform="translate(320.34 57.2575)">
      <text>
       <tspan style="font-family:DejaVu Sans;font-size:14px;font-style:oblique;font-weight:oblique;" x="0" y="-0.609375">K</tspan>
       <tspan style="font-family:DejaVu Sans;font-size:9.8px;font-style:oblique;font-weight:oblique;" x="9.180664" y="1.6875">X</tspan>
       <tspan style="font-family:DejaVu Sans;font-size:14px;font-style:book;font-weight:book;" x="19.00459 33.462598 42.369824 46.82002" y="-0.609375">=1.0</tspan>
      </text>
     </g>
    </g>
    <g id="line2d_17">
     <path d="M 281.14 72.2375 
L 309.14 72.2375 
" style="fill:none;stroke:#00aa44;stroke-linecap:square;stroke-width:3;"/>
    </g>
    <g id="line2d_18"/>
    <g id="text_14">
     <!-- $K_X = 2.0$ -->
     <g transform="translate(320.34 77.1375)">
      <text>
       <tspan style="font-family:DejaVu Sans;font-size:14px;font-style:oblique;font-weight:oblique;" x="0" y="-0.609375">K</tspan>
       <tspan style="font-family:DejaVu Sans;font-size:9.8px;font-style:oblique;font-weight:oblique;" x="9.180664" y="1.6875">X</tspan>
       <tspan style="font-family:DejaVu Sans;font-size:14px;font-style:book;font-weight:book;" x="19.00459 33.462598 42.369824 46.82002" y="-0.609375">=2.0</tspan>
      </text>
     </g>
    </g>
    <g id="line2d_19">
     <path d="M 281.14 92.1175 
L 309.14 92.1175 
" style="fill:none;stroke:#ff2a2a;stroke-linecap:square;stroke-width:3;"/>
    </g>
    <g id="line2d_20"/>
    <g id="text_15">
     <!-- $K_X = 3.0$ -->
     <g transform="translate(320.34 97.0175)">
      <text>
       <tspan style="font-family:DejaVu Sans;font-size:14px;font-style:oblique;font-weight:oblique;" x="0" y="-0.609375">K</tspan>
       <tspan style="font-family:DejaVu Sans;font-size:9.8px;font-style:oblique;font-weight:oblique;" x="9.180664" y="1.6875">X</tspan>
       <tspan style="font-family:DejaVu Sans;font-size:14px;font-style:book;font-weight:book;" x="19.00459 33.462598 42.369824 46.82002" y="-0.609375">=3.0</tspan>
      </text>
     </g>
    </g>
    <g id="line2d_21">
     <path d="M 281.14 111.9975 
L 309.14 111.9975 
" style="fill:none;stroke:#813d9c;stroke-linecap:square;stroke-width:3;"/>
    </g>
    <g id="line2d_22"/>
    <g id="text_16">
     <!-- $K_X = 4.0$ -->
     <g transform="translate(320.34 116.8975)">
      <text>
       <tspan style="font-family:DejaVu Sans;font-size:14px;font-style:oblique;font-weight:oblique;" x="0" y="-0.609375">K</tspan>
       <tspan style="font-family:DejaVu Sans;font-size:9.8px;font-style:oblique;font-weight:oblique;" x="9.180664" y="1.6875">X</tspan>
       <tspan style="font-family:DejaVu Sans;font-size:14px;font-style:book;font-weight:book;" x="19.00459 33.462598 42.369824 46.82002" y="-0.609375">=4.0</tspan>
      </text>
     </g>
    </g>
   </g>
  </g>
 </g>
 <defs>
  <clipPath id="pfd6f653580">
   <rect height="217.44" width="334.8" x="54" y="34.56"/>
  </clipPath>
 </defs>
</svg>
