<?xml version="1.0" encoding="utf-8" standalone="no"?>
<!DOCTYPE svg PUBLIC "-//W3C//DTD SVG 1.1//EN"
  "http://www.w3.org/Graphics/SVG/1.1/DTD/svg11.dtd">
<!-- Created with matplotlib (https://matplotlib.org/) -->
<svg height="288pt" version="1.1" viewBox="0 0 432 288" width="432pt" xmlns="http://www.w3.org/2000/svg" xmlns:xlink="http://www.w3.org/1999/xlink">
 <metadata>
  <rdf:RDF xmlns:cc="http://creativecommons.org/ns#" xmlns:dc="http://purl.org/dc/elements/1.1/" xmlns:rdf="http://www.w3.org/1999/02/22-rdf-syntax-ns#">
   <cc:Work>
    <dc:type rdf:resource="http://purl.org/dc/dcmitype/StillImage"/>
    <dc:date>2021-08-13T18:33:08.658178</dc:date>
    <dc:format>image/svg+xml</dc:format>
    <dc:creator>
     <cc:Agent>
      <dc:title>Matplotlib v3.3.4, https://matplotlib.org/</dc:title>
     </cc:Agent>
    </dc:creator>
   </cc:Work>
  </rdf:RDF>
 </metadata>
 <defs>
  <style type="text/css">*{stroke-linecap:butt;stroke-linejoin:round;}</style>
 </defs>
 <g id="figure_1">
  <g id="patch_1">
   <path d="M 0 288 
L 432 288 
L 432 0 
L 0 0 
z
" style="fill:#ffffff;"/>
  </g>
  <g id="axes_1">
   <g id="patch_2">
    <path d="M 54 252 
L 388.8 252 
L 388.8 34.56 
L 54 34.56 
z
" style="fill:#ffffff;"/>
   </g>
   <g id="matplotlib.axis_1">
    <g id="xtick_1">
     <g id="line2d_1">
      <defs>
       <path d="M 0 0 
L 0 -3.5 
" id="m3383c83a0e" style="stroke:#000000;stroke-width:0.8;"/>
      </defs>
      <g>
       <use style="stroke:#000000;stroke-width:0.8;" x="69.218182" xlink:href="#m3383c83a0e" y="252"/>
      </g>
     </g>
     <g id="text_1">
      <text style="font-family:Arial;font-size:18px;font-stretch:normal;font-style:normal;font-weight:normal;text-anchor:middle;" transform="rotate(-0, 69.218182, 268.384063)" x="69.218182" y="268.384063">0</text>
     </g>
    </g>
    <g id="xtick_2">
     <g id="line2d_2">
      <g>
       <use style="stroke:#000000;stroke-width:0.8;" x="130.090909" xlink:href="#m3383c83a0e" y="252"/>
      </g>
     </g>
     <g id="text_2">
      <text style="font-family:Arial;font-size:18px;font-stretch:normal;font-style:normal;font-weight:normal;text-anchor:middle;" transform="rotate(-0, 130.090909, 268.384063)" x="130.090909" y="268.384063">200</text>
     </g>
    </g>
    <g id="xtick_3">
     <g id="line2d_3">
      <g>
       <use style="stroke:#000000;stroke-width:0.8;" x="190.963636" xlink:href="#m3383c83a0e" y="252"/>
      </g>
     </g>
     <g id="text_3">
      <text style="font-family:Arial;font-size:18px;font-stretch:normal;font-style:normal;font-weight:normal;text-anchor:middle;" transform="rotate(-0, 190.963636, 268.384063)" x="190.963636" y="268.384063">400</text>
     </g>
    </g>
    <g id="xtick_4">
     <g id="line2d_4">
      <g>
       <use style="stroke:#000000;stroke-width:0.8;" x="251.836364" xlink:href="#m3383c83a0e" y="252"/>
      </g>
     </g>
     <g id="text_4">
      <text style="font-family:Arial;font-size:18px;font-stretch:normal;font-style:normal;font-weight:normal;text-anchor:middle;" transform="rotate(-0, 251.836364, 268.384063)" x="251.836364" y="268.384063">600</text>
     </g>
    </g>
    <g id="xtick_5">
     <g id="line2d_5">
      <g>
       <use style="stroke:#000000;stroke-width:0.8;" x="312.709091" xlink:href="#m3383c83a0e" y="252"/>
      </g>
     </g>
     <g id="text_5">
      <text style="font-family:Arial;font-size:18px;font-stretch:normal;font-style:normal;font-weight:normal;text-anchor:middle;" transform="rotate(-0, 312.709091, 268.384063)" x="312.709091" y="268.384063">800</text>
     </g>
    </g>
    <g id="xtick_6">
     <g id="line2d_6">
      <g>
       <use style="stroke:#000000;stroke-width:0.8;" x="373.581818" xlink:href="#m3383c83a0e" y="252"/>
      </g>
     </g>
     <g id="text_6">
      <text style="font-family:Arial;font-size:18px;font-stretch:normal;font-style:normal;font-weight:normal;text-anchor:middle;" transform="rotate(-0, 373.581818, 268.384063)" x="373.581818" y="268.384063">1000</text>
     </g>
    </g>
    <g id="text_7">
     <text style="font-family:Arial;font-size:18px;font-stretch:normal;font-style:normal;font-weight:normal;text-anchor:middle;" transform="rotate(-0, 221.4, 289.065)" x="221.4" y="289.065">Time (ms)</text>
    </g>
   </g>
   <g id="matplotlib.axis_2">
    <g id="ytick_1">
     <g id="line2d_7">
      <defs>
       <path d="M 0 0 
L 3.5 0 
" id="m22370568b5" style="stroke:#000000;stroke-width:0.8;"/>
      </defs>
      <g>
       <use style="stroke:#000000;stroke-width:0.8;" x="54" xlink:href="#m22370568b5" y="189.744916"/>
      </g>
     </g>
     <g id="text_8">
      <text style="font-family:Arial;font-size:18px;font-stretch:normal;font-style:normal;font-weight:normal;text-anchor:end;" transform="rotate(-0, 50.5, 196.186947)" x="50.5" y="196.186947">−50</text>
     </g>
    </g>
    <g id="ytick_2">
     <g id="line2d_8">
      <g>
       <use style="stroke:#000000;stroke-width:0.8;" x="54" xlink:href="#m22370568b5" y="121.251049"/>
      </g>
     </g>
     <g id="text_9">
      <text style="font-family:Arial;font-size:18px;font-stretch:normal;font-style:normal;font-weight:normal;text-anchor:end;" transform="rotate(-0, 50.5, 127.69308)" x="50.5" y="127.69308">0</text>
     </g>
    </g>
    <g id="ytick_3">
     <g id="line2d_9">
      <g>
       <use style="stroke:#000000;stroke-width:0.8;" x="54" xlink:href="#m22370568b5" y="52.757181"/>
      </g>
     </g>
     <g id="text_10">
      <text style="font-family:Arial;font-size:18px;font-stretch:normal;font-style:normal;font-weight:normal;text-anchor:end;" transform="rotate(-0, 50.5, 59.199212)" x="50.5" y="59.199212">50</text>
     </g>
    </g>
    <g id="text_11">
     <text style="font-family:Arial;font-size:18px;font-stretch:normal;font-style:normal;font-weight:normal;text-anchor:middle;" transform="rotate(-90, 12.179063, 143.28)" x="12.179063" y="143.28">Membrane potential (mV)</text>
    </g>
   </g>
   <g id="line2d_10">
    <path clip-path="url(#p8fb602fc7e)" d="M 69.218182 121.251049 
L 70.770436 112.7607 
L 72.383564 105.165501 
L 74.057564 98.344742 
L 75.792436 92.205794 
L 77.557745 86.762869 
L 79.383927 81.846208 
L 81.240545 77.476679 
L 83.1276 73.588998 
L 85.075527 70.077164 
L 87.053891 66.958692 
L 89.093127 64.151701 
L 91.193236 61.633904 
L 93.384655 59.354366 
L 95.636945 57.329854 
L 98.010982 55.495353 
L 100.506764 53.849477 
L 103.154727 52.371628 
L 105.985309 51.048503 
L 109.059382 49.861 
L 112.407382 48.809581 
L 116.120618 47.880597 
L 120.2904 47.070978 
L 125.068909 46.374915 
L 130.6692 45.790108 
L 137.456509 45.313307 
L 146.039564 44.944005 
L 157.696691 44.679818 
L 175.654145 44.517953 
L 213.03 44.450329 
L 373.581818 44.443639 
L 373.581818 44.443639 
" style="fill:none;stroke:#0066ff;stroke-linecap:square;stroke-width:3;"/>
   </g>
   <g id="line2d_11">
    <path clip-path="url(#p8fb602fc7e)" d="M 69.218182 121.251049 
L 70.922618 130.311491 
L 72.7488 138.820049 
L 74.666291 146.696378 
L 76.675091 154.012896 
L 78.7752 160.827129 
L 80.966618 167.185276 
L 83.249345 173.125181 
L 85.592945 178.61065 
L 88.027855 183.748932 
L 90.523636 188.505165 
L 93.110727 192.963023 
L 95.789127 197.136619 
L 98.5284 200.998112 
L 101.358982 204.608011 
L 104.280873 207.976464 
L 107.294073 211.113253 
L 110.429018 214.055054 
L 113.655273 216.778714 
L 117.003273 219.316116 
L 120.503455 221.689866 
L 124.155818 223.897791 
L 127.9908 225.955163 
L 132.038836 227.871842 
L 136.299927 229.641769 
L 140.834945 231.282674 
L 145.674327 232.795031 
L 150.878945 234.185855 
L 156.509673 235.457261 
L 162.657818 236.613585 
L 169.414691 237.65411 
L 176.932473 238.582404 
L 185.393782 239.398592 
L 195.102982 240.106116 
L 206.455745 240.704075 
L 220.152109 241.194793 
L 237.348655 241.578432 
L 260.419418 241.85703 
L 295.147309 242.033095 
L 362.837782 242.113181 
L 373.581818 242.116364 
L 373.581818 242.116364 
" style="fill:none;stroke:#00aa44;stroke-linecap:square;stroke-width:3;"/>
   </g>
   <g id="line2d_12">
    <path clip-path="url(#p8fb602fc7e)" d="M 69.218182 121.251049 
L 70.800873 123.391563 
L 72.444436 125.246546 
L 74.179309 126.867835 
L 76.005491 128.267314 
L 77.953418 129.477526 
L 80.053527 130.519686 
L 82.366691 131.418464 
L 84.984218 132.192578 
L 87.997418 132.845328 
L 91.558473 133.382002 
L 95.941309 133.808558 
L 101.632909 134.127496 
L 109.759418 134.342758 
L 123.668836 134.458441 
L 164.484 134.489556 
L 373.581818 134.489896 
L 373.581818 134.489896 
" style="fill:none;stroke:#ff2a2a;stroke-linecap:square;stroke-width:3;"/>
   </g>
   <g id="patch_3">
    <path d="M 54 252 
L 54 34.56 
" style="fill:none;stroke:#000000;stroke-linecap:square;stroke-linejoin:miter;stroke-width:0.8;"/>
   </g>
   <g id="patch_4">
    <path d="M 388.8 252 
L 388.8 34.56 
" style="fill:none;stroke:#000000;stroke-linecap:square;stroke-linejoin:miter;stroke-width:0.8;"/>
   </g>
   <g id="patch_5">
    <path d="M 54 252 
L 388.8 252 
" style="fill:none;stroke:#000000;stroke-linecap:square;stroke-linejoin:miter;stroke-width:0.8;"/>
   </g>
   <g id="patch_6">
    <path d="M 54 34.56 
L 388.8 34.56 
" style="fill:none;stroke:#000000;stroke-linecap:square;stroke-linejoin:miter;stroke-width:0.8;"/>
   </g>
   <g id="legend_1">
    <g id="line2d_13">
     <path d="M 418.14 52.280938 
L 433 52.280938 
" style="fill:none;stroke:#0066ff;stroke-linecap:square;stroke-width:3;"/>
    </g>
    <g id="line2d_14"/>
    <g id="text_12">
     <text style="font-family:Arial;font-size:14px;font-stretch:normal;font-style:normal;font-weight:normal;text-anchor:start;" transform="rotate(-0, 457.34, 57.180938)" x="457.34" y="57.180938">Na</text>
    </g>
    <g id="line2d_15">
     <path d="M 418.14 72.084375 
L 433 72.084375 
" style="fill:none;stroke:#00aa44;stroke-linecap:square;stroke-width:3;"/>
    </g>
    <g id="line2d_16"/>
    <g id="text_13">
     <text style="font-family:Arial;font-size:14px;font-stretch:normal;font-style:normal;font-weight:normal;text-anchor:start;" transform="rotate(-0, 457.34, 76.984375)" x="457.34" y="76.984375">K</text>
    </g>
    <g id="line2d_17">
     <path d="M 418.14 91.887813 
L 433 91.887813 
" style="fill:none;stroke:#ff2a2a;stroke-linecap:square;stroke-width:3;"/>
    </g>
    <g id="line2d_18"/>
    <g id="text_14">
     <text style="font-family:Arial;font-size:14px;font-stretch:normal;font-style:normal;font-weight:normal;text-anchor:start;" transform="rotate(-0, 457.34, 96.787813)" x="457.34" y="96.787813">Cl</text>
    </g>
   </g>
  </g>
 </g>
 <defs>
  <clipPath id="p8fb602fc7e">
   <rect height="217.44" width="334.8" x="54" y="34.56"/>
  </clipPath>
 </defs>
</svg>
