<?xml version="1.0" encoding="utf-8" standalone="no"?>
<!DOCTYPE svg PUBLIC "-//W3C//DTD SVG 1.1//EN"
  "http://www.w3.org/Graphics/SVG/1.1/DTD/svg11.dtd">
<!-- Created with matplotlib (http://matplotlib.org/) -->
<svg height="288pt" version="1.1" viewBox="0 0 432 288" width="432pt" xmlns="http://www.w3.org/2000/svg" xmlns:xlink="http://www.w3.org/1999/xlink">
 <defs>
  <style type="text/css">
*{stroke-linecap:butt;stroke-linejoin:round;}
  </style>
 </defs>
 <g id="figure_1">
  <g id="patch_1">
   <path d="M 0 288 
L 432 288 
L 432 0 
L 0 0 
z
" style="fill:#ffffff;"/>
  </g>
  <g id="axes_1">
   <g id="patch_2">
    <path d="M 54 252 
L 388.8 252 
L 388.8 34.56 
L 54 34.56 
z
" style="fill:#ffffff;"/>
   </g>
   <g id="matplotlib.axis_1">
    <g id="xtick_1">
     <g id="line2d_1">
      <defs>
       <path d="M 0 0 
L 0 -3.5 
" id="m29885982a3" style="stroke:#000000;stroke-width:0.8;"/>
      </defs>
      <g>
       <use style="stroke:#000000;stroke-width:0.8;" x="54" xlink:href="#m29885982a3" y="252"/>
      </g>
     </g>
     <g id="text_1">
      <!-- $\mathdefault{10^{-2}}$ -->
      <g transform="translate(36.18 274.0625)">
       <text>
        <tspan style="font-family:Arial;font-size:18px;font-style:regular;font-weight:regular;" x="0 10.010742" y="-0.39887500000000387">10</tspan>
        <tspan style="font-family:Arial;font-size:12.6px;font-style:regular;font-weight:regular;" x="20.335106 27.693309" y="-12.943750000000003">−2</tspan>
       </text>
      </g>
     </g>
    </g>
    <g id="xtick_2">
     <g id="line2d_2">
      <g>
       <use style="stroke:#000000;stroke-width:0.8;" x="120.96" xlink:href="#m29885982a3" y="252"/>
      </g>
     </g>
     <g id="text_2">
      <!-- $\mathdefault{10^{-1}}$ -->
      <g transform="translate(103.14 274.0625)">
       <text>
        <tspan style="font-family:Arial;font-size:18px;font-style:regular;font-weight:regular;" x="0 10.010742" y="-0.39887500000000387">10</tspan>
        <tspan style="font-family:Arial;font-size:12.6px;font-style:regular;font-weight:regular;" x="20.335106 27.693309" y="-12.943750000000003">−1</tspan>
       </text>
      </g>
     </g>
    </g>
    <g id="xtick_3">
     <g id="line2d_3">
      <g>
       <use style="stroke:#000000;stroke-width:0.8;" x="187.92" xlink:href="#m29885982a3" y="252"/>
      </g>
     </g>
     <g id="text_3">
      <!-- $\mathdefault{10^{0}}$ -->
      <g transform="translate(173.79 274.0625)">
       <text>
        <tspan style="font-family:Arial;font-size:18px;font-style:regular;font-weight:regular;" x="0 10.010742" y="-0.39887500000000387">10</tspan>
        <tspan style="font-family:Arial;font-size:12.6px;font-style:regular;font-weight:regular;" x="20.335106" y="-12.943750000000003">0</tspan>
       </text>
      </g>
     </g>
    </g>
    <g id="xtick_4">
     <g id="line2d_4">
      <g>
       <use style="stroke:#000000;stroke-width:0.8;" x="254.88" xlink:href="#m29885982a3" y="252"/>
      </g>
     </g>
     <g id="text_4">
      <!-- $\mathdefault{10^{1}}$ -->
      <g transform="translate(240.75 274.0625)">
       <text>
        <tspan style="font-family:Arial;font-size:18px;font-style:regular;font-weight:regular;" x="0 10.010742" y="-0.39887500000000387">10</tspan>
        <tspan style="font-family:Arial;font-size:12.6px;font-style:regular;font-weight:regular;" x="20.335106" y="-12.943750000000003">1</tspan>
       </text>
      </g>
     </g>
    </g>
    <g id="xtick_5">
     <g id="line2d_5">
      <g>
       <use style="stroke:#000000;stroke-width:0.8;" x="321.84" xlink:href="#m29885982a3" y="252"/>
      </g>
     </g>
     <g id="text_5">
      <!-- $\mathdefault{10^{2}}$ -->
      <g transform="translate(307.71 274.0625)">
       <text>
        <tspan style="font-family:Arial;font-size:18px;font-style:regular;font-weight:regular;" x="0 10.010742" y="-0.39887500000000387">10</tspan>
        <tspan style="font-family:Arial;font-size:12.6px;font-style:regular;font-weight:regular;" x="20.335106" y="-12.943750000000003">2</tspan>
       </text>
      </g>
     </g>
    </g>
    <g id="xtick_6">
     <g id="line2d_6">
      <g>
       <use style="stroke:#000000;stroke-width:0.8;" x="388.8" xlink:href="#m29885982a3" y="252"/>
      </g>
     </g>
     <g id="text_6">
      <!-- $\mathdefault{10^{3}}$ -->
      <g transform="translate(374.67 274.0625)">
       <text>
        <tspan style="font-family:Arial;font-size:18px;font-style:regular;font-weight:regular;" x="0 10.010742" y="-0.39887500000000387">10</tspan>
        <tspan style="font-family:Arial;font-size:12.6px;font-style:regular;font-weight:regular;" x="20.335106" y="-12.943750000000003">3</tspan>
       </text>
      </g>
     </g>
    </g>
    <g id="xtick_7">
     <g id="line2d_7">
      <defs>
       <path d="M 0 0 
L 0 -2 
" id="m0f577ada08" style="stroke:#000000;stroke-width:0.6;"/>
      </defs>
      <g>
       <use style="stroke:#000000;stroke-width:0.6;" x="74.156969" xlink:href="#m0f577ada08" y="252"/>
      </g>
     </g>
    </g>
    <g id="xtick_8">
     <g id="line2d_8">
      <g>
       <use style="stroke:#000000;stroke-width:0.6;" x="85.948039" xlink:href="#m0f577ada08" y="252"/>
      </g>
     </g>
    </g>
    <g id="xtick_9">
     <g id="line2d_9">
      <g>
       <use style="stroke:#000000;stroke-width:0.6;" x="94.313937" xlink:href="#m0f577ada08" y="252"/>
      </g>
     </g>
    </g>
    <g id="xtick_10">
     <g id="line2d_10">
      <g>
       <use style="stroke:#000000;stroke-width:0.6;" x="100.803031" xlink:href="#m0f577ada08" y="252"/>
      </g>
     </g>
    </g>
    <g id="xtick_11">
     <g id="line2d_11">
      <g>
       <use style="stroke:#000000;stroke-width:0.6;" x="106.105008" xlink:href="#m0f577ada08" y="252"/>
      </g>
     </g>
    </g>
    <g id="xtick_12">
     <g id="line2d_12">
      <g>
       <use style="stroke:#000000;stroke-width:0.6;" x="110.587765" xlink:href="#m0f577ada08" y="252"/>
      </g>
     </g>
    </g>
    <g id="xtick_13">
     <g id="line2d_13">
      <g>
       <use style="stroke:#000000;stroke-width:0.6;" x="114.470906" xlink:href="#m0f577ada08" y="252"/>
      </g>
     </g>
    </g>
    <g id="xtick_14">
     <g id="line2d_14">
      <g>
       <use style="stroke:#000000;stroke-width:0.6;" x="117.896078" xlink:href="#m0f577ada08" y="252"/>
      </g>
     </g>
    </g>
    <g id="xtick_15">
     <g id="line2d_15">
      <g>
       <use style="stroke:#000000;stroke-width:0.6;" x="141.116969" xlink:href="#m0f577ada08" y="252"/>
      </g>
     </g>
    </g>
    <g id="xtick_16">
     <g id="line2d_16">
      <g>
       <use style="stroke:#000000;stroke-width:0.6;" x="152.908039" xlink:href="#m0f577ada08" y="252"/>
      </g>
     </g>
    </g>
    <g id="xtick_17">
     <g id="line2d_17">
      <g>
       <use style="stroke:#000000;stroke-width:0.6;" x="161.273937" xlink:href="#m0f577ada08" y="252"/>
      </g>
     </g>
    </g>
    <g id="xtick_18">
     <g id="line2d_18">
      <g>
       <use style="stroke:#000000;stroke-width:0.6;" x="167.763031" xlink:href="#m0f577ada08" y="252"/>
      </g>
     </g>
    </g>
    <g id="xtick_19">
     <g id="line2d_19">
      <g>
       <use style="stroke:#000000;stroke-width:0.6;" x="173.065008" xlink:href="#m0f577ada08" y="252"/>
      </g>
     </g>
    </g>
    <g id="xtick_20">
     <g id="line2d_20">
      <g>
       <use style="stroke:#000000;stroke-width:0.6;" x="177.547765" xlink:href="#m0f577ada08" y="252"/>
      </g>
     </g>
    </g>
    <g id="xtick_21">
     <g id="line2d_21">
      <g>
       <use style="stroke:#000000;stroke-width:0.6;" x="181.430906" xlink:href="#m0f577ada08" y="252"/>
      </g>
     </g>
    </g>
    <g id="xtick_22">
     <g id="line2d_22">
      <g>
       <use style="stroke:#000000;stroke-width:0.6;" x="184.856078" xlink:href="#m0f577ada08" y="252"/>
      </g>
     </g>
    </g>
    <g id="xtick_23">
     <g id="line2d_23">
      <g>
       <use style="stroke:#000000;stroke-width:0.6;" x="208.076969" xlink:href="#m0f577ada08" y="252"/>
      </g>
     </g>
    </g>
    <g id="xtick_24">
     <g id="line2d_24">
      <g>
       <use style="stroke:#000000;stroke-width:0.6;" x="219.868039" xlink:href="#m0f577ada08" y="252"/>
      </g>
     </g>
    </g>
    <g id="xtick_25">
     <g id="line2d_25">
      <g>
       <use style="stroke:#000000;stroke-width:0.6;" x="228.233937" xlink:href="#m0f577ada08" y="252"/>
      </g>
     </g>
    </g>
    <g id="xtick_26">
     <g id="line2d_26">
      <g>
       <use style="stroke:#000000;stroke-width:0.6;" x="234.723031" xlink:href="#m0f577ada08" y="252"/>
      </g>
     </g>
    </g>
    <g id="xtick_27">
     <g id="line2d_27">
      <g>
       <use style="stroke:#000000;stroke-width:0.6;" x="240.025008" xlink:href="#m0f577ada08" y="252"/>
      </g>
     </g>
    </g>
    <g id="xtick_28">
     <g id="line2d_28">
      <g>
       <use style="stroke:#000000;stroke-width:0.6;" x="244.507765" xlink:href="#m0f577ada08" y="252"/>
      </g>
     </g>
    </g>
    <g id="xtick_29">
     <g id="line2d_29">
      <g>
       <use style="stroke:#000000;stroke-width:0.6;" x="248.390906" xlink:href="#m0f577ada08" y="252"/>
      </g>
     </g>
    </g>
    <g id="xtick_30">
     <g id="line2d_30">
      <g>
       <use style="stroke:#000000;stroke-width:0.6;" x="251.816078" xlink:href="#m0f577ada08" y="252"/>
      </g>
     </g>
    </g>
    <g id="xtick_31">
     <g id="line2d_31">
      <g>
       <use style="stroke:#000000;stroke-width:0.6;" x="275.036969" xlink:href="#m0f577ada08" y="252"/>
      </g>
     </g>
    </g>
    <g id="xtick_32">
     <g id="line2d_32">
      <g>
       <use style="stroke:#000000;stroke-width:0.6;" x="286.828039" xlink:href="#m0f577ada08" y="252"/>
      </g>
     </g>
    </g>
    <g id="xtick_33">
     <g id="line2d_33">
      <g>
       <use style="stroke:#000000;stroke-width:0.6;" x="295.193937" xlink:href="#m0f577ada08" y="252"/>
      </g>
     </g>
    </g>
    <g id="xtick_34">
     <g id="line2d_34">
      <g>
       <use style="stroke:#000000;stroke-width:0.6;" x="301.683031" xlink:href="#m0f577ada08" y="252"/>
      </g>
     </g>
    </g>
    <g id="xtick_35">
     <g id="line2d_35">
      <g>
       <use style="stroke:#000000;stroke-width:0.6;" x="306.985008" xlink:href="#m0f577ada08" y="252"/>
      </g>
     </g>
    </g>
    <g id="xtick_36">
     <g id="line2d_36">
      <g>
       <use style="stroke:#000000;stroke-width:0.6;" x="311.467765" xlink:href="#m0f577ada08" y="252"/>
      </g>
     </g>
    </g>
    <g id="xtick_37">
     <g id="line2d_37">
      <g>
       <use style="stroke:#000000;stroke-width:0.6;" x="315.350906" xlink:href="#m0f577ada08" y="252"/>
      </g>
     </g>
    </g>
    <g id="xtick_38">
     <g id="line2d_38">
      <g>
       <use style="stroke:#000000;stroke-width:0.6;" x="318.776078" xlink:href="#m0f577ada08" y="252"/>
      </g>
     </g>
    </g>
    <g id="xtick_39">
     <g id="line2d_39">
      <g>
       <use style="stroke:#000000;stroke-width:0.6;" x="341.996969" xlink:href="#m0f577ada08" y="252"/>
      </g>
     </g>
    </g>
    <g id="xtick_40">
     <g id="line2d_40">
      <g>
       <use style="stroke:#000000;stroke-width:0.6;" x="353.788039" xlink:href="#m0f577ada08" y="252"/>
      </g>
     </g>
    </g>
    <g id="xtick_41">
     <g id="line2d_41">
      <g>
       <use style="stroke:#000000;stroke-width:0.6;" x="362.153937" xlink:href="#m0f577ada08" y="252"/>
      </g>
     </g>
    </g>
    <g id="xtick_42">
     <g id="line2d_42">
      <g>
       <use style="stroke:#000000;stroke-width:0.6;" x="368.643031" xlink:href="#m0f577ada08" y="252"/>
      </g>
     </g>
    </g>
    <g id="xtick_43">
     <g id="line2d_43">
      <g>
       <use style="stroke:#000000;stroke-width:0.6;" x="373.945008" xlink:href="#m0f577ada08" y="252"/>
      </g>
     </g>
    </g>
    <g id="xtick_44">
     <g id="line2d_44">
      <g>
       <use style="stroke:#000000;stroke-width:0.6;" x="378.427765" xlink:href="#m0f577ada08" y="252"/>
      </g>
     </g>
    </g>
    <g id="xtick_45">
     <g id="line2d_45">
      <g>
       <use style="stroke:#000000;stroke-width:0.6;" x="382.310906" xlink:href="#m0f577ada08" y="252"/>
      </g>
     </g>
    </g>
    <g id="xtick_46">
     <g id="line2d_46">
      <g>
       <use style="stroke:#000000;stroke-width:0.6;" x="385.736078" xlink:href="#m0f577ada08" y="252"/>
      </g>
     </g>
    </g>
    <g id="text_7">
     <text style="font-family:Arial;font-size:18px;font-style:normal;font-weight:normal;text-anchor:middle;" transform="rotate(-0, 221.4, 294.743438)" x="221.4" y="294.743438">Time (s)</text>
    </g>
   </g>
   <g id="matplotlib.axis_2">
    <g id="ytick_1">
     <g id="line2d_47">
      <defs>
       <path d="M 0 0 
L 3.5 0 
" id="m0d7bee3673" style="stroke:#000000;stroke-width:0.8;"/>
      </defs>
      <g>
       <use style="stroke:#000000;stroke-width:0.8;" x="54" xlink:href="#m0d7bee3673" y="241.645714"/>
      </g>
     </g>
     <g id="text_8">
      <text style="font-family:Arial;font-size:18px;font-style:normal;font-weight:normal;text-anchor:end;" transform="rotate(-0, 50.5, 248.087746)" x="50.5" y="248.087746">0</text>
     </g>
    </g>
    <g id="ytick_2">
     <g id="line2d_48">
      <g>
       <use style="stroke:#000000;stroke-width:0.8;" x="54" xlink:href="#m0d7bee3673" y="200.228571"/>
      </g>
     </g>
     <g id="text_9">
      <text style="font-family:Arial;font-size:18px;font-style:normal;font-weight:normal;text-anchor:end;" transform="rotate(-0, 50.5, 206.670603)" x="50.5" y="206.670603">2</text>
     </g>
    </g>
    <g id="ytick_3">
     <g id="line2d_49">
      <g>
       <use style="stroke:#000000;stroke-width:0.8;" x="54" xlink:href="#m0d7bee3673" y="158.811429"/>
      </g>
     </g>
     <g id="text_10">
      <text style="font-family:Arial;font-size:18px;font-style:normal;font-weight:normal;text-anchor:end;" transform="rotate(-0, 50.5, 165.25346)" x="50.5" y="165.25346">4</text>
     </g>
    </g>
    <g id="ytick_4">
     <g id="line2d_50">
      <g>
       <use style="stroke:#000000;stroke-width:0.8;" x="54" xlink:href="#m0d7bee3673" y="117.394286"/>
      </g>
     </g>
     <g id="text_11">
      <text style="font-family:Arial;font-size:18px;font-style:normal;font-weight:normal;text-anchor:end;" transform="rotate(-0, 50.5, 123.836317)" x="50.5" y="123.836317">6</text>
     </g>
    </g>
    <g id="ytick_5">
     <g id="line2d_51">
      <g>
       <use style="stroke:#000000;stroke-width:0.8;" x="54" xlink:href="#m0d7bee3673" y="75.977143"/>
      </g>
     </g>
     <g id="text_12">
      <text style="font-family:Arial;font-size:18px;font-style:normal;font-weight:normal;text-anchor:end;" transform="rotate(-0, 50.5, 82.419174)" x="50.5" y="82.419174">8</text>
     </g>
    </g>
    <g id="ytick_6">
     <g id="line2d_52">
      <g>
       <use style="stroke:#000000;stroke-width:0.8;" x="54" xlink:href="#m0d7bee3673" y="34.56"/>
      </g>
     </g>
     <g id="text_13">
      <text style="font-family:Arial;font-size:18px;font-style:normal;font-weight:normal;text-anchor:end;" transform="rotate(-0, 50.5, 41.002031)" x="50.5" y="41.002031">10</text>
     </g>
    </g>
    <g id="text_14">
     <!-- [$S_4$] ($\mu$M) -->
     <g transform="translate(22.520625 180)rotate(-90)">
      <text>
       <tspan style="font-family:Arial;font-size:18px;font-style:regular;font-weight:regular;" x="0 24.935449 29.936426 34.937402 52.383691 67.377832" y="-0.640625">[] (M)</tspan>
       <tspan style="font-family:DejaVu Sans;font-size:18px;font-style:oblique;font-weight:oblique;" x="5.000977 40.931543" y="-0.640625">Sμ</tspan>
       <tspan style="font-family:DejaVu Sans;font-size:12.6px;font-style:book;font-weight:book;" x="16.426758" y="2.3125">4</tspan>
      </text>
     </g>
    </g>
   </g>
   <g id="line2d_53">
    <path clip-path="url(#pe89d391023)" d="M 53.707733 51.579631 
L 58.316107 53.982631 
L 62.941765 56.650798 
L 67.667874 59.644111 
L 72.511882 62.985886 
L 77.582141 66.761026 
L 83.205451 71.235113 
L 90.180462 77.091193 
L 106.775754 91.149681 
L 111.728317 94.976068 
L 116.02789 98.021186 
L 119.893798 100.492476 
L 123.519388 102.551825 
L 127.003679 104.276465 
L 130.410473 105.715223 
L 133.816962 106.912062 
L 137.283637 107.893021 
L 140.898044 108.683048 
L 144.761034 109.297329 
L 149.069178 109.752679 
L 154.252926 110.067726 
L 161.411742 110.261149 
L 181.321649 110.466928 
L 187.92 110.551476 
L 208.076969 110.947907 
L 228.233937 111.65305 
L 244.507765 112.525568 
L 266.671071 114.047437 
L 282.666615 115.049556 
L 293.70231 115.501498 
L 304.97867 115.724595 
L 322.129359 115.797259 
L 388.8 115.799045 
L 388.8 115.799045 
" style="fill:none;stroke:#ff2a2a;stroke-linecap:square;"/>
   </g>
   <g id="line2d_54">
    <path clip-path="url(#pe89d391023)" d="M 53.707733 55.391624 
L 58.316107 57.749682 
L 62.941765 60.368376 
L 67.667874 63.306698 
L 72.511882 66.587603 
L 77.582141 70.294446 
L 83.205451 74.688278 
L 90.180462 80.440425 
L 106.823078 94.290918 
L 111.847908 98.100687 
L 116.131073 101.075591 
L 119.984157 103.486569 
L 123.625715 105.506052 
L 127.121557 107.194488 
L 130.557185 108.608106 
L 133.98468 109.778076 
L 137.482026 110.736622 
L 141.116969 111.501372 
L 145.054584 112.098327 
L 149.475595 112.537495 
L 154.803012 112.833998 
L 162.519158 113.015205 
L 208.076969 113.698678 
L 228.233937 114.357808 
L 270.31086 115.999421 
L 281.526063 116.102242 
L 296.612772 115.968135 
L 318.12256 115.807877 
L 384.312396 115.799045 
L 388.8 115.799045 
L 388.8 115.799045 
" style="fill:none;stroke:#ff2a2a;stroke-linecap:square;"/>
   </g>
   <g id="line2d_55">
    <path clip-path="url(#pe89d391023)" d="M 53.707733 59.203459 
L 58.316107 61.516596 
L 62.941765 64.08589 
L 67.667874 66.969339 
L 72.511882 70.189597 
L 77.582141 73.828818 
L 83.205451 78.144153 
L 90.180462 83.795934 
L 106.917495 97.483885 
L 111.927362 101.214875 
L 116.199659 104.125137 
L 120.1042 106.51922 
L 123.758079 108.503061 
L 127.285787 110.166532 
L 130.765498 111.560758 
L 134.20681 112.701821 
L 137.711781 113.630026 
L 141.391928 114.372202 
L 145.370335 114.943981 
L 149.876411 115.360701 
L 155.405223 115.638252 
L 163.61279 115.802717 
L 187.92 116.07872 
L 219.868039 116.831076 
L 251.816078 117.836196 
L 262.509647 117.915389 
L 271.973047 117.721423 
L 281.526063 117.271009 
L 304.454686 116.048519 
L 314.239419 115.853152 
L 330.781765 115.799782 
L 388.8 115.799045 
L 388.8 115.799045 
" style="fill:none;stroke:#ff2a2a;stroke-linecap:square;"/>
   </g>
   <g id="line2d_56">
    <path clip-path="url(#pe89d391023)" d="M 53.707733 63.015121 
L 58.316107 65.283339 
L 62.941765 67.803251 
L 67.667874 70.631928 
L 72.511882 73.791835 
L 77.711101 77.458025 
L 83.417717 81.765842 
L 90.430796 87.356156 
L 106.917495 100.611014 
L 111.967008 104.310351 
L 116.268083 107.190797 
L 120.193908 109.55546 
L 123.863538 111.510509 
L 127.402529 113.145804 
L 130.889773 114.513054 
L 134.35396 115.633969 
L 137.874788 116.540201 
L 141.60718 117.267397 
L 145.632941 117.820414 
L 150.208028 118.218179 
L 155.881672 118.477358 
L 164.692647 118.628137 
L 187.92 118.901444 
L 219.868039 119.666933 
L 244.507765 120.332784 
L 254.88 120.349354 
L 262.509647 120.127741 
L 270.31086 119.640128 
L 277.808623 118.927495 
L 301.683031 116.400291 
L 308.403843 116.046105 
L 316.421469 115.858209 
L 330.567149 115.800268 
L 388.8 115.799045 
L 388.8 115.799045 
" style="fill:none;stroke:#ff2a2a;stroke-linecap:square;"/>
   </g>
   <g id="line2d_57">
    <path clip-path="url(#pe89d391023)" d="M 53.707733 66.826584 
L 58.565725 69.177044 
L 63.366304 71.759305 
L 68.208082 74.62741 
L 73.120917 77.801619 
L 78.347458 81.450108 
L 84.14868 85.780589 
L 91.491348 91.560001 
L 106.250047 103.244125 
L 111.447345 107.026044 
L 115.855101 109.964798 
L 119.833403 112.354722 
L 123.546006 114.330066 
L 127.121557 115.982487 
L 130.598967 117.346767 
L 134.077441 118.474322 
L 137.629934 119.392319 
L 141.348686 120.121626 
L 145.370335 120.680027 
L 149.865651 121.075161 
L 155.414118 121.332251 
L 163.926382 121.477797 
L 187.92 121.768917 
L 219.868039 122.566371 
L 240.025008 123.073585 
L 248.390906 123.087581 
L 254.88 122.92597 
L 262.509647 122.461337 
L 268.547874 121.8465 
L 275.036969 120.940181 
L 283.764118 119.432135 
L 294.457686 117.592618 
L 300.495913 116.799877 
L 305.999138 116.305748 
L 311.880259 116.001474 
L 319.729618 115.839785 
L 335.869125 115.79924 
L 388.8 115.799045 
L 388.8 115.799045 
" style="fill:none;stroke:#ff2a2a;stroke-linecap:square;"/>
   </g>
   <g id="line2d_58">
    <path clip-path="url(#pe89d391023)" d="M 53.707733 70.637842 
L 58.565725 72.940812 
L 63.366304 75.471546 
L 68.208082 78.283241 
L 73.120917 81.396075 
L 78.347458 84.975457 
L 84.14868 89.226059 
L 91.491348 94.902907 
L 106.585686 106.646115 
L 111.768235 110.344285 
L 116.165386 113.216586 
L 120.164036 115.567082 
L 123.889843 117.503138 
L 127.472349 119.116707 
L 130.972329 120.451052 
L 134.463835 121.546517 
L 138.036887 122.43557 
L 141.792451 123.138905 
L 145.843804 123.668241 
L 150.472734 124.041607 
L 156.307351 124.276415 
L 165.733836 124.399819 
L 187.317657 124.672688 
L 208.076969 125.176666 
L 234.723031 125.948368 
L 244.507765 126.01573 
L 251.816078 125.827728 
L 257.651654 125.456687 
L 262.509647 124.962465 
L 268.547874 124.085933 
L 273.545341 123.140347 
L 280.338945 121.589865 
L 294.457686 118.222901 
L 299.258264 117.338116 
L 303.921086 116.695103 
L 308.861811 116.24456 
L 314.614655 115.961867 
L 322.415868 115.826608 
L 342.142008 115.799024 
L 388.8 115.799045 
L 388.8 115.799045 
" style="fill:none;stroke:#ff2a2a;stroke-linecap:square;"/>
   </g>
   <g id="line2d_59">
    <path clip-path="url(#pe89d391023)" d="M 53.707733 74.44887 
L 58.565725 76.704328 
L 63.366304 79.183533 
L 68.208082 81.938858 
L 73.120917 84.990428 
L 78.347458 88.500948 
L 84.14868 92.672176 
L 91.411126 98.185607 
L 107.011606 110.112953 
L 112.203756 113.743147 
L 116.607811 116.557182 
L 120.608925 118.853919 
L 124.359312 120.752807 
L 127.956457 122.326875 
L 131.483061 123.628162 
L 135.025005 124.697746 
L 138.676393 125.565349 
L 142.42481 126.232987 
L 146.503639 126.726067 
L 151.242431 127.069341 
L 157.265898 127.271669 
L 168.418618 127.374228 
L 185.247631 127.597696 
L 187.92 127.652833 
L 219.868039 128.589863 
L 234.723031 129.025696 
L 244.507765 129.067087 
L 251.816078 128.807369 
L 257.651654 128.330163 
L 262.509647 127.70082 
L 266.671071 126.967473 
L 271.973047 125.764698 
L 277.808623 124.128514 
L 286.828039 121.239568 
L 292.926787 119.369786 
L 297.297048 118.229913 
L 301.683031 117.321827 
L 305.999138 116.675386 
L 310.624797 116.229983 
L 316.068976 115.954654 
L 323.807538 115.823067 
L 344.636138 115.799023 
L 388.8 115.799045 
L 388.8 115.799045 
" style="fill:none;stroke:#ff2a2a;stroke-linecap:square;"/>
   </g>
   <g id="line2d_60">
    <path clip-path="url(#pe89d391023)" d="M 53.707733 78.259651 
L 58.565725 80.467565 
L 63.366304 82.89522 
L 68.208082 85.594186 
L 73.271204 88.679926 
L 78.598152 92.197778 
L 84.456412 96.342552 
L 91.81004 101.836178 
L 107.152204 113.372892 
L 112.360524 116.959373 
L 116.809759 119.759577 
L 120.843445 122.039191 
L 124.61689 123.919056 
L 128.229514 125.473247 
L 131.78525 126.761513 
L 135.345944 127.81353 
L 139.006587 128.661559 
L 142.838871 129.320305 
L 146.994812 129.806082 
L 151.771364 130.13331 
L 157.86875 130.314921 
L 170.343716 130.401919 
L 184.771947 130.611508 
L 187.92 130.684147 
L 219.868039 131.785004 
L 234.723031 132.311738 
L 244.507765 132.387451 
L 251.816078 132.111494 
L 257.651654 131.56986 
L 262.509647 130.831869 
L 266.671071 129.955087 
L 270.31086 128.989449 
L 275.036969 127.465138 
L 280.338945 125.452719 
L 294.457686 119.828241 
L 298.61911 118.521406 
L 302.258899 117.612579 
L 305.999138 116.912879 
L 309.756662 116.429093 
L 314.239419 116.082541 
L 320.040641 115.879478 
L 329.91363 115.803383 
L 388.8 115.799045 
L 388.8 115.799045 
" style="fill:none;stroke:#ff2a2a;stroke-linecap:square;"/>
   </g>
   <g id="line2d_61">
    <path clip-path="url(#pe89d391023)" d="M 53.707733 82.070166 
L 58.565725 84.230492 
L 63.366304 86.606571 
L 68.208082 89.249179 
L 73.271204 92.271851 
L 78.598152 95.719743 
L 84.456412 99.785072 
L 91.81004 105.179214 
L 107.661992 116.895366 
L 112.86426 120.406836 
L 117.308576 123.145602 
L 121.335608 125.37069 
L 125.15049 127.229335 
L 128.790279 128.757412 
L 132.380367 130.022011 
L 135.960032 131.04627 
L 139.640643 131.867142 
L 143.516134 132.501062 
L 147.756889 132.965329 
L 152.645131 133.269292 
L 158.991064 133.42641 
L 187.92 133.788705 
L 208.076969 134.539133 
L 240.025008 136.014029 
L 248.390906 136.040446 
L 254.88 135.713359 
L 260.181976 135.094337 
L 264.664733 134.240281 
L 268.547874 133.210332 
L 271.973047 132.058598 
L 275.036969 130.835146 
L 279.101296 128.959722 
L 284.821702 125.989885 
L 292.130015 122.165982 
L 295.912007 120.425838 
L 299.258264 119.118157 
L 302.258899 118.157481 
L 305.49338 117.349034 
L 308.861811 116.739262 
L 312.688099 116.288017 
L 317.113891 116.000553 
L 323.258835 115.843578 
L 336.225944 115.799201 
L 388.8 115.799045 
L 388.8 115.799045 
" style="fill:none;stroke:#ff2a2a;stroke-linecap:square;"/>
   </g>
   <g id="line2d_62">
    <path clip-path="url(#pe89d391023)" d="M 53.707733 85.880398 
L 58.565725 87.993083 
L 63.366304 90.317539 
L 68.208082 92.903761 
L 73.271204 95.86338 
L 78.598152 99.241408 
L 84.456412 103.227563 
L 91.730693 108.464695 
L 108.387905 120.560158 
L 113.585141 123.989875 
L 118.025038 126.659105 
L 122.072577 128.836852 
L 125.896181 130.646264 
L 129.600857 132.150948 
L 133.193586 133.369484 
L 136.815398 134.363037 
L 140.5443 135.154253 
L 144.490397 135.761711 
L 148.813647 136.198132 
L 153.899078 136.47953 
L 160.649319 136.612785 
L 186.040095 136.924043 
L 187.92 136.983569 
L 208.076969 137.90917 
L 228.233937 139.289644 
L 244.507765 140.456359 
L 251.816078 140.746837 
L 257.651654 140.706714 
L 262.509647 140.36167 
L 266.671071 139.724676 
L 270.31086 138.814407 
L 273.545341 137.663303 
L 276.455804 136.318964 
L 279.101296 134.841664 
L 282.666615 132.504986 
L 286.828039 129.428996 
L 293.70231 124.280833 
L 296.612772 122.34633 
L 299.258264 120.805742 
L 302.258899 119.344376 
L 304.97867 118.289602 
L 307.938548 117.416807 
L 311.049335 116.770029 
L 314.239419 116.337311 
L 318.12256 116.035305 
L 323.534481 115.858629 
L 333.824296 115.800176 
L 388.8 115.799045 
L 388.8 115.799045 
" style="fill:none;stroke:#ff2a2a;stroke-linecap:square;"/>
   </g>
   <g id="line2d_63">
    <path clip-path="url(#pe89d391023)" d="M 53.707733 89.690328 
L 58.565725 91.75531 
L 63.576271 94.132839 
L 68.562725 96.752498 
L 73.717459 99.721626 
L 79.093149 103.082575 
L 85.062275 107.087525 
L 92.514578 112.376023 
L 108.387905 123.723081 
L 113.697348 127.187948 
L 118.217412 129.87694 
L 122.351127 132.078436 
L 126.213469 133.88743 
L 129.901765 135.372584 
L 133.535265 136.596743 
L 137.200574 137.59663 
L 140.971202 138.393004 
L 144.965556 139.006365 
L 149.344406 139.448551 
L 154.437447 139.731003 
L 161.237564 139.868307 
L 184.833452 140.179402 
L 187.92 140.292959 
L 208.076969 141.48272 
L 219.868039 142.569039 
L 228.233937 143.565548 
L 234.723031 144.5064 
L 240.025008 145.421573 
L 244.507765 146.340997 
L 248.390906 147.300003 
L 251.816078 148.340021 
L 254.88 149.511287 
L 257.651654 150.873243 
L 260.181976 152.496314 
L 262.509647 154.459343 
L 264.664733 156.817025 
L 266.671071 159.574798 
L 268.547874 162.668157 
L 270.31086 165.975607 
L 273.545341 172.715054 
L 279.101296 184.533199 
L 281.526063 189.191143 
L 283.764118 193.029766 
L 285.84217 196.13588 
L 287.781579 198.613942 
L 289.599693 200.564498 
L 291.310796 202.071931 
L 292.926787 203.20458 
L 294.457686 204.022892 
L 295.912007 204.581086 
L 297.297048 204.922855 
L 299.258264 205.107068 
L 301.09553 204.983022 
L 302.823584 204.626268 
L 304.97867 203.892116 
L 306.985008 202.961134 
L 309.312678 201.641926 
L 312.286984 199.688235 
L 322.980552 192.388006 
L 325.650349 190.961656 
L 328.095516 189.901813 
L 330.567149 189.086466 
L 333.043569 188.51867 
L 335.689061 188.149735 
L 338.608123 187.971256 
L 342.715039 187.966526 
L 355.114409 188.010874 
L 388.8 188.008801 
L 388.8 188.008801 
" style="fill:none;stroke:#00aa44;stroke-linecap:square;"/>
   </g>
   <g id="line2d_64">
    <path clip-path="url(#pe89d391023)" d="M 53.707733 93.499941 
L 58.813219 95.62606 
L 63.784733 97.94266 
L 68.738438 100.496538 
L 73.864701 103.39292 
L 79.215593 106.674184 
L 85.162036 110.588605 
L 92.591817 115.765959 
L 109.096137 127.362612 
L 114.398114 130.752328 
L 118.943275 133.399084 
L 123.063111 135.545171 
L 126.956394 137.324608 
L 130.70316 138.79391 
L 134.390631 140.002052 
L 138.101474 140.9838 
L 141.990662 141.780018 
L 146.077679 142.383662 
L 150.525387 142.80547 
L 155.890422 143.086407 
L 163.214284 143.22525 
L 181.892508 143.501434 
L 187.92 143.753339 
L 208.076969 145.352203 
L 219.868039 146.993972 
L 228.233937 148.716776 
L 234.723031 150.618026 
L 240.025008 152.804891 
L 244.507765 155.375791 
L 248.390906 158.378458 
L 251.816078 161.765361 
L 254.88 165.40708 
L 257.651654 169.141603 
L 262.509647 176.386909 
L 270.31086 188.41461 
L 273.545341 193.005657 
L 276.455804 196.734408 
L 279.101296 199.716828 
L 281.526063 202.072312 
L 283.764118 203.90581 
L 285.84217 205.307678 
L 287.781579 206.352324 
L 289.599693 207.100106 
L 291.310796 207.60191 
L 292.926787 207.898133 
L 295.193937 208.02842 
L 297.297048 207.862158 
L 299.258264 207.471879 
L 301.09553 206.914388 
L 303.377512 205.986285 
L 305.999138 204.644898 
L 308.861811 202.91109 
L 312.688099 200.303759 
L 321.547733 194.114583 
L 324.611654 192.273944 
L 327.383308 190.863952 
L 329.91363 189.830026 
L 332.241301 189.108958 
L 334.771623 188.564136 
L 337.610985 188.199366 
L 340.960917 188.008868 
L 345.934584 187.98565 
L 364.121475 188.009396 
L 388.8 188.008808 
L 388.8 188.008808 
" style="fill:none;stroke:#00aa44;stroke-linecap:square;"/>
   </g>
   <g id="line2d_65">
    <path clip-path="url(#pe89d391023)" d="M 53.707733 97.309215 
L 58.813219 99.384912 
L 63.784733 101.647502 
L 68.738438 104.143063 
L 73.864701 106.975035 
L 79.215593 110.185814 
L 85.162036 114.020112 
L 92.437134 118.991565 
L 110.169335 131.227458 
L 115.400984 134.49046 
L 119.923949 137.055833 
L 124.073316 139.157183 
L 127.97931 140.889189 
L 131.765201 142.326157 
L 135.505095 143.508435 
L 139.271168 144.465938 
L 143.193015 145.231222 
L 147.395927 145.819425 
L 152.171788 146.256204 
L 157.754099 146.533673 
L 166.216252 146.7026 
L 179.923969 146.995235 
L 187.92 147.404593 
L 208.076969 149.629053 
L 219.868039 152.167848 
L 228.233937 155.074021 
L 234.723031 158.414563 
L 240.025008 162.137992 
L 244.507765 166.088917 
L 248.390906 170.094009 
L 251.816078 174.016916 
L 257.651654 181.286975 
L 266.671071 192.778902 
L 270.31086 197.03813 
L 273.545341 200.457712 
L 276.455804 203.168981 
L 279.101296 205.292745 
L 281.526063 206.932595 
L 283.764118 208.173146 
L 285.84217 209.084089 
L 287.781579 209.723072 
L 289.599693 210.137052 
L 291.310796 210.361693 
L 293.70231 210.414904 
L 295.912007 210.197841 
L 297.965591 209.770714 
L 299.883673 209.186162 
L 302.258899 208.225352 
L 304.97867 206.850002 
L 307.938548 205.081578 
L 311.467765 202.688817 
L 317.454016 198.290621 
L 322.415868 194.752848 
L 325.650349 192.7018 
L 328.329094 191.245504 
L 330.781765 190.150534 
L 333.240724 189.300622 
L 335.689061 188.700232 
L 338.279528 188.299106 
L 341.260718 188.065679 
L 345.292607 187.996402 
L 388.8 188.008804 
L 388.8 188.008804 
" style="fill:none;stroke:#00aa44;stroke-linecap:square;"/>
   </g>
   <g id="line2d_66">
    <path clip-path="url(#pe89d391023)" d="M 53.707733 101.11813 
L 58.813219 103.143304 
L 63.784733 105.351769 
L 68.913095 107.879156 
L 74.156969 110.721505 
L 79.579861 113.918974 
L 85.557693 117.708451 
L 92.898736 122.641779 
L 110.712129 134.732345 
L 116.02789 137.995666 
L 120.638344 140.566712 
L 124.821322 142.646897 
L 128.790279 144.374873 
L 132.634516 145.806662 
L 136.442133 146.987611 
L 140.291102 147.948116 
L 144.295531 148.716583 
L 148.612088 149.31385 
L 153.483907 149.755818 
L 159.513223 150.070276 
L 170.124684 150.353373 
L 179.977517 150.714231 
L 187.162863 151.200542 
L 187.92 151.266115 
L 208.076969 154.332045 
L 219.868039 157.932662 
L 228.233937 161.920901 
L 234.723031 166.133844 
L 240.025008 170.385462 
L 244.507765 174.531698 
L 248.390906 178.481733 
L 254.88 185.609886 
L 264.664733 196.547627 
L 268.547874 200.523522 
L 271.973047 203.688113 
L 275.036969 206.179381 
L 277.808623 208.118804 
L 280.338945 209.606653 
L 282.666615 210.723434 
L 284.821702 211.534174 
L 286.828039 212.092763 
L 288.704843 212.443684 
L 291.310796 212.658002 
L 293.70231 212.570769 
L 295.912007 212.2487 
L 297.965591 211.746162 
L 300.495913 210.865574 
L 302.823584 209.825059 
L 305.49338 208.396152 
L 308.403843 206.58845 
L 311.880259 204.156393 
L 317.113891 200.168558 
L 323.534481 195.307625 
L 326.898625 193.050656 
L 329.692486 191.445647 
L 332.241301 190.247326 
L 334.584611 189.393249 
L 336.753095 188.829812 
L 339.572201 188.355342 
L 342.572836 188.083627 
L 346.187458 187.986799 
L 359.570693 188.011402 
L 388.8 188.008808 
L 388.8 188.008808 
" style="fill:none;stroke:#00aa44;stroke-linecap:square;"/>
   </g>
   <g id="line2d_67">
    <path clip-path="url(#pe89d391023)" d="M 53.707733 104.926678 
L 58.813219 106.901223 
L 63.991712 109.15018 
L 69.08671 111.609966 
L 74.302008 114.378453 
L 79.820196 117.567803 
L 85.850943 121.320508 
L 93.20245 126.174232 
L 111.568094 138.427447 
L 116.910209 141.638079 
L 121.535868 144.164483 
L 125.797853 146.244538 
L 129.816109 147.958087 
L 133.685843 149.368822 
L 137.56429 150.546054 
L 141.506927 151.50958 
L 145.632941 152.286222 
L 150.112141 152.898946 
L 155.226761 153.367363 
L 161.871179 153.737286 
L 181.626538 154.706471 
L 187.92 155.319001 
L 208.076969 159.262801 
L 219.868039 163.660218 
L 228.233937 168.180695 
L 234.723031 172.643218 
L 240.025008 176.926881 
L 244.507765 180.9633 
L 251.816078 188.167722 
L 262.509647 199.060861 
L 266.671071 202.981526 
L 270.31086 206.088461 
L 273.545341 208.525911 
L 276.455804 210.417407 
L 279.101296 211.865833 
L 281.526063 212.952755 
L 283.764118 213.743734 
L 285.84217 214.290713 
L 287.781579 214.634274 
L 290.467828 214.840276 
L 292.926787 214.752303 
L 295.193937 214.438585 
L 297.297048 213.951285 
L 299.883673 213.101041 
L 302.258899 212.088955 
L 304.97867 210.675707 
L 307.938548 208.868239 
L 311.049335 206.706361 
L 314.98511 203.683486 
L 327.383308 193.883335 
L 330.133106 192.106832 
L 332.645201 190.752869 
L 334.957441 189.762193 
L 337.27086 189.019507 
L 339.572201 188.515727 
L 342.142008 188.193592 
L 345.422141 188.031017 
L 351.57324 188.008074 
L 388.8 188.008808 
L 388.8 188.008808 
" style="fill:none;stroke:#00aa44;stroke-linecap:square;"/>
   </g>
   <g id="line2d_68">
    <path clip-path="url(#pe89d391023)" d="M 53.707733 108.734835 
L 58.813219 110.658638 
L 63.991712 112.850849 
L 69.08671 115.249983 
L 74.302008 117.952177 
L 79.820196 121.0681 
L 85.850943 124.739111 
L 93.126819 129.446339 
L 112.90265 142.400214 
L 118.217412 145.512426 
L 122.900347 147.999509 
L 127.168574 150.019307 
L 131.198157 151.684119 
L 135.150236 153.077908 
L 139.115824 154.241294 
L 143.165926 155.197368 
L 147.454451 155.9789 
L 152.171788 156.608075 
L 157.745892 157.118025 
L 165.957485 157.622846 
L 177.947969 158.387659 
L 184.410007 159.037165 
L 187.92 159.499233 
L 208.076969 164.148785 
L 219.868039 168.9846 
L 228.233937 173.704037 
L 234.723031 178.197104 
L 240.025008 182.403651 
L 244.507765 186.294035 
L 251.816078 193.100991 
L 260.181976 201.037546 
L 264.664733 205.02569 
L 268.547874 208.171628 
L 271.973047 210.633691 
L 275.036969 212.541228 
L 277.808623 214.000782 
L 280.338945 215.095056 
L 282.666615 215.891023 
L 284.821702 216.44492 
L 286.828039 216.799122 
L 289.599693 217.027453 
L 292.130015 216.969479 
L 294.457686 216.689482 
L 296.612772 216.236157 
L 299.258264 215.428334 
L 301.683031 214.452522 
L 304.454686 213.072684 
L 307.465686 211.277503 
L 310.624797 209.098372 
L 314.239419 206.298492 
L 318.776078 202.46658 
L 326.898625 195.545073 
L 329.91363 193.289907 
L 332.443952 191.662317 
L 334.771623 190.42961 
L 336.92671 189.536049 
L 339.094157 188.877684 
L 341.409467 188.41677 
L 343.964506 188.144885 
L 347.298945 188.030853 
L 361.935012 188.006938 
L 388.8 188.00881 
L 388.8 188.00881 
" style="fill:none;stroke:#00aa44;stroke-linecap:square;"/>
   </g>
   <g id="line2d_69">
    <path clip-path="url(#pe89d391023)" d="M 53.707733 112.542586 
L 59.058625 114.511282 
L 64.197228 116.64057 
L 69.43086 119.055559 
L 74.732836 121.753186 
L 80.294988 124.840141 
L 86.333215 128.453335 
L 93.652156 133.108709 
L 113.771913 146.06768 
L 119.129688 149.151027 
L 123.863538 151.62362 
L 128.184182 153.634833 
L 132.301718 155.309001 
L 136.356627 156.718609 
L 140.425422 157.897756 
L 144.606693 158.876974 
L 149.069178 159.690971 
L 154.048592 160.367469 
L 160.177553 160.96356 
L 182.504973 162.928089 
L 187.92 163.727448 
L 208.076969 168.859521 
L 219.868039 173.917865 
L 228.233937 178.702886 
L 234.723031 183.160578 
L 240.025008 187.267236 
L 244.507765 191.01781 
L 254.88 200.232115 
L 260.181976 204.877166 
L 264.664733 208.544798 
L 268.547874 211.416943 
L 271.973047 213.648826 
L 275.036969 215.367429 
L 277.808623 216.674603 
L 280.338945 217.650427 
L 282.666615 218.356166 
L 284.821702 218.84037 
L 287.781579 219.232433 
L 290.467828 219.307821 
L 292.926787 219.1392 
L 295.193937 218.780238 
L 297.965591 218.074732 
L 300.495913 217.180096 
L 302.823584 216.148043 
L 305.49338 214.72575 
L 308.403843 212.900343 
L 311.467765 210.695876 
L 314.98511 207.853225 
L 319.097412 204.211418 
L 329.469647 194.852386 
L 332.241301 192.753852 
L 334.584611 191.257314 
L 336.753095 190.134858 
L 338.771039 189.328015 
L 340.80985 188.742326 
L 342.997374 188.34222 
L 345.551101 188.103191 
L 349.289122 188.005824 
L 367.273591 188.009317 
L 388.8 188.008798 
L 388.8 188.008798 
" style="fill:none;stroke:#00aa44;stroke-linecap:square;"/>
   </g>
   <g id="line2d_70">
    <path clip-path="url(#pe89d391023)" d="M 53.707733 116.349912 
L 59.058625 118.265017 
L 64.197228 120.337435 
L 69.43086 122.689454 
L 74.732836 125.318899 
L 80.294988 128.331024 
L 86.333215 131.861694 
L 93.503025 136.32548 
L 115.576485 150.269025 
L 120.901781 153.240869 
L 125.649736 155.640051 
L 130.029779 157.605022 
L 134.225245 159.24521 
L 138.390354 160.635111 
L 142.591142 161.802258 
L 146.971044 162.786776 
L 151.710822 163.621015 
L 157.182334 164.350502 
L 164.879494 165.129646 
L 178.115485 166.465165 
L 184.472281 167.355357 
L 187.92 167.946885 
L 208.076969 173.387655 
L 219.868039 178.560431 
L 228.233937 183.353657 
L 234.723031 187.750867 
L 240.025008 191.752076 
L 248.390906 198.618819 
L 257.651654 206.416682 
L 262.509647 210.257379 
L 266.671071 213.249602 
L 270.31086 215.567069 
L 273.545341 217.357662 
L 276.455804 218.722903 
L 279.101296 219.73704 
L 281.526063 220.473708 
L 283.764118 220.983951 
L 286.828039 221.417277 
L 289.599693 221.538188 
L 292.130015 221.418844 
L 294.457686 221.110159 
L 297.297048 220.470792 
L 299.883673 219.635578 
L 302.258899 218.654954 
L 304.97867 217.283122 
L 307.938548 215.495089 
L 310.624797 213.616131 
L 313.859278 211.054679 
L 317.113891 208.187051 
L 321.252498 204.230383 
L 330.133106 195.632933 
L 332.845067 193.366748 
L 335.142079 191.724505 
L 337.27086 190.477692 
L 339.25438 189.573381 
L 341.260718 188.907916 
L 343.415804 188.443358 
L 345.934584 188.152662 
L 349.289122 188.020404 
L 357.598388 188.008991 
L 388.8 188.00881 
L 388.8 188.00881 
" style="fill:none;stroke:#00aa44;stroke-linecap:square;"/>
   </g>
   <g id="line2d_71">
    <path clip-path="url(#pe89d391023)" d="M 53.707733 120.156797 
L 59.058625 122.018155 
L 64.401301 124.118272 
L 69.60142 126.40093 
L 75.016549 129.027025 
L 80.646063 132.013621 
L 86.713356 135.492771 
L 93.874427 139.868554 
L 116.943616 154.183523 
L 122.267842 157.091038 
L 127.050888 159.455969 
L 131.483061 161.403106 
L 135.803358 163.058728 
L 140.080917 164.46074 
L 144.43856 165.654225 
L 149.024898 166.677586 
L 154.057911 167.568244 
L 160.109529 168.402537 
L 172.003833 169.752298 
L 180.12997 170.804046 
L 186.348675 171.831081 
L 187.92 172.130023 
L 208.076969 177.765588 
L 219.868039 182.994439 
L 228.233937 187.765172 
L 234.723031 192.087375 
L 240.025008 195.979848 
L 248.390906 202.572357 
L 257.651654 209.939997 
L 262.509647 213.523424 
L 266.671071 216.282406 
L 270.31086 218.397154 
L 273.545341 220.015944 
L 276.455804 221.237808 
L 279.101296 222.151359 
L 281.526063 222.816271 
L 284.821702 223.438587 
L 287.781579 223.705914 
L 290.467828 223.707529 
L 292.926787 223.511557 
L 295.912007 223.011809 
L 298.61911 222.290928 
L 301.09553 221.399718 
L 303.921086 220.117793 
L 306.496251 218.701958 
L 309.312678 216.880969 
L 312.286984 214.659192 
L 315.350906 212.070292 
L 318.776078 208.853034 
L 322.980552 204.548308 
L 330.781765 196.450007 
L 333.631071 193.865131 
L 335.869125 192.119528 
L 337.947178 190.776349 
L 339.886587 189.78705 
L 341.851202 189.045965 
L 343.828298 188.543556 
L 346.061296 188.216211 
L 348.947666 188.036654 
L 354.173215 188.005147 
L 388.8 188.008811 
L 388.8 188.008811 
" style="fill:none;stroke:#00aa44;stroke-linecap:square;"/>
   </g>
   <g id="line2d_72">
    <path clip-path="url(#pe89d391023)" d="M 53.707733 123.963224 
L 59.058625 125.770669 
L 64.401301 127.811136 
L 69.770985 130.106805 
L 75.157374 132.655874 
L 80.762152 135.558575 
L 86.80762 138.945746 
L 93.874427 143.171207 
L 107.011606 151.359551 
L 115.117961 156.250598 
L 121.04711 159.572118 
L 126.091844 162.15042 
L 130.786247 164.301304 
L 135.27493 166.114432 
L 139.686499 167.65798 
L 144.151795 168.984468 
L 148.79132 170.129572 
L 153.852197 171.145382 
L 159.774656 172.098484 
L 168.942704 173.314076 
L 179.701071 174.800786 
L 186.277991 175.943134 
L 187.92 176.269028 
L 208.076969 182.028021 
L 219.868039 187.275828 
L 228.233937 192.00335 
L 234.723031 196.240251 
L 240.025008 200.018001 
L 260.181976 215.035147 
L 264.664733 217.933746 
L 268.547874 220.145579 
L 271.973047 221.827605 
L 275.036969 223.098751 
L 277.808623 224.050408 
L 280.338945 224.747247 
L 283.764118 225.418265 
L 286.828039 225.743512 
L 289.599693 225.807331 
L 292.130015 225.668567 
L 295.193937 225.237328 
L 297.965591 224.591796 
L 300.495913 223.77823 
L 303.377512 222.5829 
L 305.999138 221.237176 
L 308.861811 219.480682 
L 311.467765 217.618487 
L 314.239419 215.365414 
L 317.113891 212.744163 
L 320.348373 209.486658 
L 324.346078 205.126196 
L 332.037228 196.656376 
L 334.771623 194.029521 
L 336.92671 192.249132 
L 338.933047 190.874156 
L 340.80985 189.85349 
L 342.715039 189.081709 
L 344.636138 188.555046 
L 346.686704 188.228665 
L 349.402056 188.041753 
L 353.690943 188.001354 
L 379.206567 188.008837 
L 388.8 188.00881 
L 388.8 188.00881 
" style="fill:none;stroke:#00aa44;stroke-linecap:square;"/>
   </g>
   <g id="line2d_73">
    <path clip-path="url(#pe89d391023)" d="M 53.707733 127.769175 
L 59.301976 129.607669 
L 64.603952 131.582888 
L 69.939567 133.807005 
L 75.436995 136.346675 
L 81.107666 139.219229 
L 87.181649 142.55203 
L 94.241145 146.690386 
L 105.91049 153.842113 
L 115.15349 159.38567 
L 121.392966 162.870914 
L 126.623228 165.544924 
L 131.38163 167.733041 
L 136.150383 169.679336 
L 140.677459 171.292255 
L 145.382894 172.725665 
L 150.144139 173.943463 
L 155.396326 175.052693 
L 161.620824 176.128781 
L 172.119222 177.673706 
L 181.662623 179.170421 
L 187.92 180.366001 
L 208.076969 186.2001 
L 219.868039 191.439752 
L 228.233937 196.106241 
L 234.723031 200.24562 
L 244.507765 207.118592 
L 254.88 214.566642 
L 260.181976 218.08422 
L 264.664733 220.74946 
L 268.547874 222.764936 
L 271.973047 224.286752 
L 275.036969 225.429686 
L 277.808623 226.28072 
L 281.526063 227.138321 
L 284.821702 227.615846 
L 287.781579 227.80948 
L 290.467828 227.786611 
L 293.70231 227.496714 
L 296.612772 226.977345 
L 299.258264 226.280667 
L 301.683031 225.441681 
L 304.454686 224.23551 
L 306.985008 222.891845 
L 309.756662 221.14341 
L 312.286984 219.287294 
L 314.98511 217.032352 
L 317.790209 214.392736 
L 320.954235 211.084913 
L 324.611654 206.915299 
L 333.824296 196.20565 
L 336.225944 193.832786 
L 338.279528 192.090968 
L 340.19761 190.749292 
L 341.996969 189.763347 
L 343.828298 189.028062 
L 345.679491 188.529328 
L 347.779623 188.200523 
L 350.399194 188.035655 
L 355.299047 188.006744 
L 388.8 188.008809 
L 388.8 188.008809 
" style="fill:none;stroke:#00aa44;stroke-linecap:square;"/>
   </g>
   <g id="line2d_74">
    <path clip-path="url(#pe89d391023)" d="M 53.707733 131.574636 
L 59.301976 133.356245 
L 64.805201 135.348723 
L 70.273828 137.572854 
L 75.713953 140.027554 
L 81.335748 142.808181 
L 87.459047 146.091821 
L 94.458977 150.108312 
L 105.068957 156.492002 
L 115.750932 162.838035 
L 122.128501 166.367889 
L 127.588346 169.141495 
L 132.59556 171.438374 
L 137.432555 173.412416 
L 142.215548 175.122876 
L 147.030428 176.608362 
L 152.022275 177.915067 
L 157.482048 179.106927 
L 164.058807 180.307862 
L 187.92 184.424989 
L 208.076969 190.299812 
L 219.868039 195.508666 
L 228.233937 200.096948 
L 234.723031 204.125453 
L 244.507765 210.72212 
L 254.88 217.727951 
L 260.181976 220.978092 
L 264.664733 223.412611 
L 268.547874 225.236476 
L 271.973047 226.603295 
L 275.036969 227.623745 
L 279.101296 228.676207 
L 282.666615 229.30746 
L 285.84217 229.631235 
L 288.704843 229.724549 
L 292.130015 229.575824 
L 295.193937 229.187475 
L 297.965591 228.609706 
L 300.495913 227.881124 
L 303.377512 226.804646 
L 305.999138 225.573902 
L 308.403843 224.22107 
L 311.049335 222.469015 
L 313.474102 220.61068 
L 316.068976 218.349581 
L 318.776078 215.694335 
L 321.84 212.349194 
L 325.394133 208.099922 
L 335.325551 195.943614 
L 337.610985 193.624061 
L 339.572201 191.93289 
L 341.409467 190.637844 
L 343.137521 189.687751 
L 344.900507 188.979408 
L 346.686704 188.502192 
L 348.71778 188.194864 
L 351.363272 188.045931 
L 356.910063 188.01932 
L 388.8 188.008809 
L 388.8 188.008809 
" style="fill:none;stroke:#00aa44;stroke-linecap:square;"/>
   </g>
   <g id="line2d_75">
    <path clip-path="url(#pe89d391023)" d="M 53.707733 135.379584 
L 59.301976 137.104106 
L 64.805201 139.034014 
L 70.273828 141.190103 
L 75.851449 143.635441 
L 81.562056 146.387845 
L 87.64252 149.570315 
L 94.603296 153.474848 
L 104.511165 159.319694 
L 116.843281 166.549879 
L 123.466078 170.167497 
L 129.077658 172.981668 
L 134.280478 175.344807 
L 139.255671 177.361502 
L 144.164891 179.112324 
L 149.16856 180.659381 
L 154.345333 182.027251 
L 160.117095 183.315977 
L 167.258498 184.67006 
L 187.879259 188.439657 
L 187.92 188.448497 
L 208.076969 194.338311 
L 219.868039 199.495583 
L 228.233937 203.988133 
L 234.723031 207.890958 
L 254.88 220.746936 
L 260.181976 223.746479 
L 264.664733 225.959262 
L 268.547874 227.593667 
L 271.973047 228.808057 
L 275.036969 229.715055 
L 279.101296 230.643127 
L 282.666615 231.187782 
L 285.84217 231.463791 
L 289.599693 231.522195 
L 292.926787 231.311273 
L 295.912007 230.898759 
L 298.61911 230.327279 
L 301.683031 229.424748 
L 304.454686 228.35018 
L 306.985008 227.134577 
L 309.756662 225.523441 
L 312.286984 223.776656 
L 314.98511 221.604914 
L 317.454016 219.331133 
L 320.040641 216.658523 
L 322.980552 213.286603 
L 326.405725 208.982658 
L 336.578438 195.868041 
L 338.771039 193.560598 
L 340.657994 191.881341 
L 342.429935 190.597759 
L 344.100079 189.658964 
L 345.807317 188.961385 
L 347.660196 188.458402 
L 349.626615 188.161998 
L 352.194196 188.015587 
L 357.170098 188.004544 
L 388.8 188.008809 
L 388.8 188.008809 
" style="fill:none;stroke:#00aa44;stroke-linecap:square;"/>
   </g>
   <g id="line2d_76">
    <path clip-path="url(#pe89d391023)" d="M 53.707733 139.184009 
L 59.301976 140.851219 
L 64.805201 142.718259 
L 70.273828 144.805907 
L 75.851449 147.176143 
L 81.562056 149.847744 
L 87.64252 152.942341 
L 94.531226 156.707784 
L 103.680241 161.986496 
L 118.724272 170.675289 
L 125.376212 174.235585 
L 131.157228 177.081315 
L 136.747887 179.578159 
L 141.721332 181.556968 
L 146.851911 183.354447 
L 152.06222 184.945196 
L 157.539969 186.381545 
L 163.713241 187.761666 
L 171.898077 189.34461 
L 186.920089 192.219518 
L 187.92 192.43674 
L 208.076969 198.320994 
L 219.868039 203.405137 
L 228.233937 207.783857 
L 234.723031 211.544612 
L 251.816078 221.87679 
L 257.651654 225.049871 
L 262.509647 227.36573 
L 266.671071 229.057775 
L 270.31086 230.302828 
L 273.545341 231.220711 
L 277.808623 232.158448 
L 281.526063 232.727175 
L 284.821702 233.034248 
L 288.704843 233.148839 
L 292.130015 233.013379 
L 295.193937 232.683347 
L 297.965591 232.195853 
L 301.09553 231.407687 
L 303.921086 230.447098 
L 306.496251 229.339805 
L 308.861811 228.106384 
L 311.467765 226.484339 
L 313.859278 224.733043 
L 316.421469 222.560141 
L 318.776078 220.28388 
L 321.252498 217.60148 
L 324.078055 214.200743 
L 327.383308 209.838198 
L 337.610985 195.983814 
L 339.729819 193.658168 
L 341.557459 191.963454 
L 343.276995 190.667316 
L 344.900507 189.717719 
L 346.562694 189.006685 
L 348.252485 188.522252 
L 350.180544 188.203292 
L 352.600921 188.044017 
L 356.997 188.015203 
L 388.8 188.008809 
L 388.8 188.008809 
" style="fill:none;stroke:#00aa44;stroke-linecap:square;"/>
   </g>
   <g id="line2d_77">
    <path clip-path="url(#pe89d391023)" d="M 53.707733 142.987892 
L 59.543308 144.671997 
L 65.203569 146.540799 
L 70.768123 148.613914 
L 76.395023 150.950911 
L 82.120237 153.570584 
L 88.27571 156.637375 
L 95.173518 160.332184 
L 104.202344 165.443035 
L 120.697092 174.810876 
L 127.472349 178.368751 
L 133.383903 181.225959 
L 138.896938 183.645822 
L 144.217218 185.739361 
L 149.606196 187.619001 
L 155.092191 189.28677 
L 160.767924 190.76916 
L 167.34123 192.25116 
L 176.917841 194.150716 
L 187.853038 196.374746 
L 187.92 196.389624 
L 208.076969 202.250101 
L 219.868039 207.241322 
L 228.233937 211.485899 
L 240.025008 218.133984 
L 248.390906 222.885095 
L 254.88 226.276734 
L 260.181976 228.707139 
L 264.664733 230.45659 
L 268.547874 231.724348 
L 271.973047 232.649922 
L 276.455804 233.593534 
L 280.338945 234.171763 
L 284.821702 234.566708 
L 288.704843 234.661082 
L 292.130015 234.529484 
L 295.912007 234.135492 
L 299.258264 233.536889 
L 302.258899 232.755728 
L 304.97867 231.823307 
L 307.465686 230.754048 
L 310.193969 229.311611 
L 312.688099 227.717934 
L 314.98511 225.994715 
L 317.454016 223.847936 
L 319.729618 221.587019 
L 322.129359 218.908594 
L 324.874827 215.493312 
L 327.860046 211.413533 
L 332.645201 204.417793 
L 336.92671 198.296209 
L 339.25438 195.3356 
L 341.260718 193.133352 
L 342.997374 191.544687 
L 344.636138 190.3396 
L 346.187458 189.463855 
L 347.779623 188.819004 
L 349.402056 188.392106 
L 351.257717 188.133543 
L 353.884813 188.016456 
L 361.788142 188.011731 
L 388.8 188.0088 
L 388.8 188.0088 
" style="fill:none;stroke:#00aa44;stroke-linecap:square;"/>
   </g>
   <g id="line2d_78">
    <path clip-path="url(#pe89d391023)" d="M 53.707733 146.791214 
L 59.543308 148.414895 
L 65.203569 150.217984 
L 70.768123 152.220049 
L 76.395023 154.479591 
L 82.230599 157.067149 
L 88.365051 160.036152 
L 95.173518 163.586155 
L 103.732875 168.317102 
L 123.968616 179.598112 
L 130.723954 183.042173 
L 136.730985 185.855918 
L 142.369154 188.252577 
L 147.860851 190.34607 
L 153.331454 192.194034 
L 158.959592 193.858438 
L 165.033223 195.41881 
L 172.114214 196.998912 
L 187.92 200.299787 
L 208.076969 206.122932 
L 219.868039 210.999149 
L 228.233937 215.087857 
L 251.816078 227.400288 
L 257.651654 229.958616 
L 262.509647 231.769054 
L 266.671071 233.063247 
L 270.31086 233.996308 
L 275.036969 234.93663 
L 279.101296 235.510348 
L 283.764118 235.912001 
L 287.781579 236.038949 
L 292.130015 235.926528 
L 295.912007 235.587806 
L 299.258264 235.062522 
L 302.258899 234.374507 
L 304.97867 233.539941 
L 307.465686 232.570846 
L 310.193969 231.246376 
L 312.688099 229.763842 
L 314.98511 228.141614 
L 317.454016 226.09554 
L 319.729618 223.913309 
L 322.129359 221.291709 
L 324.611654 218.239204 
L 327.383308 214.456571 
L 330.781765 209.396738 
L 338.44429 197.781728 
L 340.657994 194.912304 
L 342.429935 192.940242 
L 344.100079 191.395752 
L 345.679491 190.235527 
L 347.177523 189.406806 
L 348.71778 188.804524 
L 350.399194 188.386049 
L 352.39827 188.126734 
L 355.299047 187.998305 
L 365.772336 188.010199 
L 388.8 188.008808 
L 388.8 188.008808 
" style="fill:none;stroke:#00aa44;stroke-linecap:square;"/>
   </g>
   <g id="line2d_79">
    <path clip-path="url(#pe89d391023)" d="M 53.707733 150.593961 
L 59.782654 152.225902 
L 65.596553 154.022964 
L 71.254157 156.003813 
L 76.928623 158.22469 
L 82.776213 160.753852 
L 88.982866 163.687251 
L 95.801929 167.164039 
L 104.254042 171.739545 
L 126.932723 184.155087 
L 133.723366 187.533321 
L 139.838832 190.33098 
L 145.645387 192.744504 
L 151.29371 194.852532 
L 156.963936 196.730648 
L 162.741199 198.408576 
L 169.176327 200.03962 
L 177.435381 201.886098 
L 187.92 204.164025 
L 208.076969 209.935016 
L 219.868039 214.671967 
L 228.233937 218.580558 
L 244.507765 226.619835 
L 251.816078 229.890019 
L 257.651654 232.131887 
L 262.509647 233.690738 
L 266.671071 234.787396 
L 271.973047 235.871766 
L 276.455804 236.532757 
L 281.526063 237.019568 
L 285.84217 237.226417 
L 290.467828 237.226255 
L 294.457686 237.015747 
L 297.965591 236.634242 
L 301.09553 236.101269 
L 303.921086 235.428316 
L 306.496251 234.623688 
L 309.312678 233.494426 
L 311.880259 232.198026 
L 314.239419 230.748545 
L 316.421469 229.1605 
L 318.776078 227.152825 
L 320.954235 225.00147 
L 323.258835 222.406124 
L 325.650349 219.367369 
L 328.329094 215.575235 
L 331.416271 210.793805 
L 339.886587 197.395476 
L 341.996969 194.604033 
L 343.828298 192.553717 
L 345.422141 191.097379 
L 346.933149 190.012979 
L 348.369508 189.245014 
L 349.960237 188.653379 
L 351.57324 188.287921 
L 353.593521 188.069445 
L 356.735406 187.996257 
L 388.8 188.008799 
L 388.8 188.008799 
" style="fill:none;stroke:#00aa44;stroke-linecap:square;"/>
   </g>
   <g id="line2d_80">
    <path clip-path="url(#pe89d391023)" d="M 53.707733 154.396117 
L 59.782654 155.964427 
L 65.596553 157.69283 
L 71.41438 159.657229 
L 77.191795 161.845621 
L 83.098734 164.324274 
L 89.330098 167.186998 
L 96.145267 170.571449 
L 104.357164 174.912341 
L 131.054651 189.232181 
L 137.874788 192.509435 
L 144.086225 195.250353 
L 149.994515 197.615938 
L 155.776467 199.693188 
L 161.592074 201.545578 
L 167.733937 203.265036 
L 174.78691 204.999493 
L 187.92 207.966341 
L 208.076969 213.676392 
L 219.868039 218.2472 
L 234.723031 224.940479 
L 244.507765 229.31102 
L 251.816078 232.185567 
L 257.651654 234.106756 
L 262.509647 235.414977 
L 266.671071 236.320219 
L 271.973047 237.202053 
L 276.455804 237.73415 
L 281.526063 238.125765 
L 286.828039 238.31233 
L 292.130015 238.256045 
L 296.612772 237.974238 
L 300.495913 237.499099 
L 303.921086 236.843786 
L 306.985008 236.014166 
L 309.756662 235.014757 
L 312.286984 233.850812 
L 314.614655 232.53033 
L 316.769741 231.062915 
L 319.097412 229.181717 
L 321.252498 227.140035 
L 323.534481 224.643645 
L 325.904327 221.678186 
L 328.329094 218.262086 
L 330.994809 214.112349 
L 334.771623 207.765188 
L 339.729819 199.440258 
L 341.996969 196.066515 
L 343.828298 193.711356 
L 345.422141 191.99409 
L 346.933149 190.679351 
L 348.369508 189.716518 
L 349.849454 189.000008 
L 351.363272 188.517521 
L 353.101456 188.203351 
L 355.390928 188.037452 
L 359.49113 188.008734 
L 388.8 188.008807 
L 388.8 188.008807 
" style="fill:none;stroke:#00aa44;stroke-linecap:square;"/>
   </g>
   <g id="line2d_81">
    <path clip-path="url(#pe89d391023)" d="M 53.707733 158.197666 
L 59.782654 159.702053 
L 65.791071 161.420753 
L 71.573725 163.304207 
L 77.452607 165.455743 
L 83.417717 167.880302 
L 89.673233 170.669553 
L 96.417048 173.925497 
L 104.408588 178.042499 
L 117.928372 185.311054 
L 129.011592 191.153284 
L 136.629364 194.919666 
L 143.328084 197.986937 
L 149.540969 200.589417 
L 155.547209 202.864973 
L 161.462348 204.867288 
L 167.552896 206.692984 
L 174.303262 208.477404 
L 183.963651 210.771797 
L 187.92 211.696803 
L 208.076969 217.334082 
L 219.868039 221.708143 
L 244.507765 231.796374 
L 251.816078 234.263251 
L 257.651654 235.864552 
L 262.509647 236.921803 
L 268.547874 237.917113 
L 273.545341 238.501901 
L 279.101296 238.938135 
L 284.821702 239.181605 
L 290.467828 239.223958 
L 295.912007 239.039722 
L 300.495913 238.640506 
L 303.921086 238.13391 
L 306.985008 237.473431 
L 309.756662 236.657689 
L 312.286984 235.685319 
L 314.614655 234.557763 
L 316.769741 233.278816 
L 318.776078 231.854808 
L 320.954235 230.021568 
L 322.980552 228.022529 
L 325.135639 225.567302 
L 327.383308 222.638623 
L 329.692486 219.246813 
L 332.241301 215.098707 
L 335.689061 208.994506 
L 340.960917 199.635741 
L 343.137521 196.228666 
L 344.900507 193.841937 
L 346.562694 191.969031 
L 348.017015 190.655738 
L 349.402056 189.69116 
L 350.831624 188.973816 
L 352.296412 188.493305 
L 353.981265 188.18405 
L 356.205051 188.020553 
L 360.354578 188.003204 
L 388.8 188.008811 
L 388.8 188.008811 
" style="fill:none;stroke:#00aa44;stroke-linecap:square;"/>
   </g>
   <g id="line2d_82">
    <path clip-path="url(#pe89d391023)" d="M 53.707733 161.998587 
L 60.020046 163.4995 
L 65.984296 165.142284 
L 71.889819 166.997197 
L 77.839491 169.102565 
L 83.837657 171.464068 
L 90.096536 174.171436 
L 96.820015 177.326389 
L 104.664354 181.263239 
L 116.02789 187.247091 
L 130.452466 194.796426 
L 138.501926 198.750176 
L 145.433075 201.910541 
L 151.841837 204.591193 
L 157.958517 206.910314 
L 163.99267 208.960723 
L 170.26911 210.854664 
L 177.335118 212.747847 
L 187.92 215.332631 
L 208.076969 220.888099 
L 219.868039 225.030518 
L 234.723031 230.682777 
L 240.025008 232.579692 
L 244.507765 234.05036 
L 251.816078 236.09935 
L 257.651654 237.386405 
L 262.509647 238.218805 
L 268.547874 238.979819 
L 275.036969 239.52393 
L 282.666615 239.889903 
L 289.599693 240.00645 
L 295.912007 239.903617 
L 301.09553 239.592527 
L 304.97867 239.14856 
L 308.403843 238.53289 
L 311.467765 237.733543 
L 313.859278 236.893908 
L 316.068976 235.906058 
L 318.12256 234.76827 
L 320.040641 233.483362 
L 322.129359 231.806717 
L 324.078055 229.951926 
L 326.156107 227.636348 
L 328.095516 225.145239 
L 330.133106 222.182112 
L 332.443952 218.420861 
L 335.142079 213.57461 
L 344.235023 196.764193 
L 346.061296 194.102566 
L 347.660196 192.167456 
L 349.06193 190.806689 
L 350.399194 189.805196 
L 351.677657 189.105519 
L 353.101456 188.585524 
L 354.741579 188.245113 
L 356.822866 188.058757 
L 360.354578 188.004857 
L 388.8 188.008811 
L 388.8 188.008811 
" style="fill:none;stroke:#00aa44;stroke-linecap:square;"/>
   </g>
   <g id="line2d_83">
    <path clip-path="url(#pe89d391023)" d="M 53.707733 165.798869 
L 60.020046 167.232528 
L 66.176247 168.857303 
L 72.202514 170.678763 
L 78.221296 172.733858 
L 84.25162 175.029052 
L 90.513765 177.651944 
L 97.283194 180.734584 
L 104.968332 184.487215 
L 115.259817 189.781658 
L 133.760841 199.320283 
L 141.877564 203.225633 
L 148.913905 206.368174 
L 155.414118 209.030064 
L 161.541694 211.305223 
L 167.739758 213.370915 
L 174.298617 215.31962 
L 182.081516 217.387794 
L 187.92 218.848725 
L 208.076969 224.31158 
L 219.868039 228.185414 
L 234.723031 233.226382 
L 240.025008 234.833254 
L 244.507765 236.041609 
L 251.816078 237.665875 
L 257.651654 238.647972 
L 264.664733 239.488011 
L 271.973047 240.053741 
L 280.338945 240.433491 
L 289.599693 240.624359 
L 297.297048 240.585801 
L 303.377512 240.337909 
L 307.938548 239.921963 
L 311.467765 239.371562 
L 314.239419 238.727323 
L 316.769741 237.912383 
L 319.097412 236.911952 
L 321.252498 235.715983 
L 323.258835 234.321313 
L 325.135639 232.73084 
L 326.898625 230.954622 
L 328.790697 228.720934 
L 330.781765 225.981731 
L 332.845067 222.722665 
L 335.142079 218.626051 
L 337.779567 213.432221 
L 345.551101 197.769921 
L 347.298945 194.908858 
L 348.83295 192.795566 
L 350.180544 191.283664 
L 351.468445 190.151378 
L 352.70172 189.342461 
L 353.981265 188.753716 
L 355.390928 188.344893 
L 357.083678 188.092485 
L 359.411349 187.996124 
L 375.317647 188.0092 
L 388.8 188.008814 
L 388.8 188.008814 
" style="fill:none;stroke:#00aa44;stroke-linecap:square;"/>
   </g>
   <g id="line2d_84">
    <path clip-path="url(#pe89d391023)" d="M 53.707733 169.598494 
L 60.255516 171.019761 
L 66.556387 172.617235 
L 72.665341 174.396341 
L 78.722694 176.392737 
L 84.86172 178.652761 
L 91.169124 181.213623 
L 97.932336 184.204005 
L 105.56692 187.831436 
L 115.295173 192.717515 
L 138.117598 204.267097 
L 146.089937 207.994398 
L 153.101265 211.030877 
L 159.774656 213.678461 
L 166.043997 215.92139 
L 172.531857 218.005201 
L 179.631547 220.043961 
L 187.92 222.213415 
L 208.076969 227.567063 
L 228.233937 233.669519 
L 234.723031 235.486514 
L 240.025008 236.793778 
L 244.507765 237.750943 
L 251.816078 238.975986 
L 257.651654 239.676269 
L 264.664733 240.25337 
L 273.545341 240.699709 
L 284.821702 241.016053 
L 297.965591 241.159346 
L 306.985008 241.047343 
L 312.688099 240.773047 
L 316.769741 240.355079 
L 319.729618 239.83295 
L 322.129359 239.191694 
L 324.078055 238.466748 
L 325.904327 237.567266 
L 327.622654 236.481307 
L 329.245087 235.201067 
L 330.781765 233.725387 
L 332.443952 231.806044 
L 334.016247 229.655791 
L 335.689061 227.003267 
L 337.610985 223.491834 
L 339.729819 219.092422 
L 342.142008 213.545327 
L 348.252485 199.23158 
L 349.960237 195.894555 
L 351.468445 193.41803 
L 352.80217 191.647807 
L 353.981265 190.422775 
L 355.206875 189.474274 
L 356.382913 188.842854 
L 357.683294 188.404699 
L 359.251126 188.124554 
L 361.417686 188.005032 
L 368.468024 188.0111 
L 388.8 188.008814 
L 388.8 188.008814 
" style="fill:none;stroke:#00aa44;stroke-linecap:square;"/>
   </g>
   <g id="line2d_85">
    <path clip-path="url(#pe89d391023)" d="M 53.707733 173.397451 
L 60.489094 174.800388 
L 66.931623 176.365199 
L 73.120917 178.097283 
L 79.337523 180.072106 
L 85.557693 182.28556 
L 91.968085 184.80706 
L 98.755121 187.720107 
L 106.34634 191.228509 
L 115.750932 195.835377 
L 143.016482 209.345695 
L 150.703698 212.813262 
L 157.671928 215.717163 
L 164.223494 218.208218 
L 170.698133 220.432095 
L 177.506192 222.531629 
L 185.365346 224.713327 
L 187.92 225.384142 
L 208.076969 230.600385 
L 219.868039 233.795792 
L 228.233937 235.945041 
L 234.723031 237.401203 
L 240.025008 238.402261 
L 248.390906 239.597567 
L 254.88 240.223755 
L 262.509647 240.698742 
L 273.545341 241.090399 
L 291.310796 241.445479 
L 312.286984 241.642598 
L 380.395303 241.645714 
L 388.8 241.645714 
L 388.8 241.645714 
" style="fill:none;stroke:#0066ff;stroke-linecap:square;"/>
   </g>
   <g id="line2d_86">
    <path clip-path="url(#pe89d391023)" d="M 53.707733 177.195715 
L 60.489094 178.524842 
L 66.931623 180.008864 
L 73.271204 181.696365 
L 79.579861 183.609935 
L 85.850943 185.746911 
L 92.281623 188.175319 
L 99.06548 190.978275 
L 106.537974 194.313102 
L 115.471311 198.555519 
L 132.615045 207.014891 
L 143.569639 212.270284 
L 151.741109 215.946537 
L 158.912319 218.92722 
L 165.658903 221.49248 
L 172.244127 223.758513 
L 179.11656 225.885572 
L 186.902024 228.054916 
L 187.92 228.32402 
L 208.076969 233.350321 
L 219.868039 236.131819 
L 228.233937 237.861366 
L 234.723031 238.954502 
L 240.025008 239.659527 
L 248.390906 240.443936 
L 257.651654 240.939917 
L 270.31086 241.286665 
L 292.130015 241.61217 
L 311.880259 241.645684 
L 388.8 241.645714 
L 388.8 241.645714 
" style="fill:none;stroke:#0066ff;stroke-linecap:square;"/>
   </g>
   <g id="line2d_87">
    <path clip-path="url(#pe89d391023)" d="M 53.707733 180.993275 
L 60.720812 182.294946 
L 67.485551 183.781554 
L 74.011202 185.448882 
L 80.412485 187.318492 
L 86.80762 189.421762 
L 93.353126 191.813052 
L 100.21553 194.561786 
L 107.707897 197.809129 
L 116.540182 201.890744 
L 130.723954 208.73365 
L 143.954639 215.023183 
L 152.429138 218.805145 
L 159.78231 221.84746 
L 166.594083 224.426639 
L 173.272674 226.717759 
L 180.141372 228.8372 
L 187.645352 230.914663 
L 187.92 230.986684 
L 208.076969 235.739097 
L 219.868039 238.057555 
L 228.233937 239.354469 
L 234.723031 240.098557 
L 244.507765 240.812643 
L 254.88 241.190738 
L 271.973047 241.481925 
L 292.926787 241.641338 
L 388.8 241.645714 
L 388.8 241.645714 
" style="fill:none;stroke:#0066ff;stroke-linecap:square;"/>
   </g>
   <g id="line2d_88">
    <path clip-path="url(#pe89d391023)" d="M 53.707733 184.790114 
L 60.950697 186.058278 
L 67.849061 187.495825 
L 74.446328 189.099231 
L 80.87778 190.88964 
L 87.366875 192.928695 
L 93.948142 195.231953 
L 100.803031 197.868387 
L 108.253169 200.977177 
L 116.876764 204.826679 
L 129.187437 210.594668 
L 145.407995 218.157755 
L 153.936528 221.879637 
L 161.33204 224.868612 
L 168.144381 227.38557 
L 174.800611 229.608292 
L 181.586794 231.638349 
L 187.92 233.335608 
L 208.076969 237.697824 
L 219.868039 239.512885 
L 228.233937 240.390792 
L 234.723031 240.838585 
L 244.507765 241.211963 
L 260.181976 241.455218 
L 287.781579 241.639608 
L 385.929304 241.645714 
L 388.8 241.645714 
L 388.8 241.645714 
" style="fill:none;stroke:#0066ff;stroke-linecap:square;"/>
   </g>
   <g id="line2d_89">
    <path clip-path="url(#pe89d391023)" d="M 53.707733 188.586216 
L 61.17878 189.814774 
L 68.208082 191.197761 
L 75.016549 192.767427 
L 81.674552 194.534998 
L 88.27571 196.520876 
L 94.960993 198.766747 
L 101.887606 201.330241 
L 109.35734 204.336052 
L 117.928372 208.033646 
L 129.7517 213.401476 
L 147.184262 221.299798 
L 155.653245 224.876787 
L 162.899751 227.701215 
L 169.659821 230.100108 
L 176.195737 232.183914 
L 182.745697 234.038555 
L 187.92 235.344397 
L 208.076969 239.179794 
L 219.868039 240.496307 
L 228.233937 241.020896 
L 240.025008 241.353395 
L 264.664733 241.565972 
L 295.912007 241.645077 
L 388.8 241.645714 
L 388.8 241.645714 
" style="fill:none;stroke:#0066ff;stroke-linecap:square;"/>
   </g>
   <g id="line2d_90">
    <path clip-path="url(#pe89d391023)" d="M 53.707733 192.381567 
L 61.405087 193.564372 
L 68.562725 194.887268 
L 75.436995 196.380856 
L 82.230599 198.08608 
L 88.895406 199.987856 
L 95.663451 202.150709 
L 102.661654 204.622185 
L 110.169335 207.514114 
L 118.661395 211.03134 
L 130.05106 216.011111 
L 148.656999 224.151258 
L 156.947068 227.512156 
L 164.091819 230.172368 
L 170.66657 232.386656 
L 176.99839 234.285334 
L 183.238333 235.92495 
L 187.92 237.004376 
L 208.076969 240.209142 
L 219.868039 241.068871 
L 234.723031 241.435155 
L 268.547874 241.612032 
L 315.712157 241.645713 
L 388.8 241.645714 
L 388.8 241.645714 
" style="fill:none;stroke:#0066ff;stroke-linecap:square;"/>
   </g>
   <g id="line2d_91">
    <path clip-path="url(#pe89d391023)" d="M 53.707733 196.17615 
L 61.629647 197.307001 
L 69.08671 198.596898 
L 76.260079 200.066646 
L 83.205451 201.719347 
L 90.096536 203.591158 
L 97.019424 205.705142 
L 104.150553 208.1182 
L 111.768235 210.93527 
L 120.402157 214.373267 
L 132.282022 219.367843 
L 149.201612 226.460547 
L 157.465478 229.662939 
L 164.445982 232.132349 
L 170.818809 234.155628 
L 176.913595 235.858797 
L 182.867046 237.292366 
L 187.92 238.327664 
L 208.076969 240.856483 
L 219.868039 241.361038 
L 234.723031 241.519778 
L 298.61911 241.645507 
L 388.8 241.645714 
L 388.8 241.645714 
" style="fill:none;stroke:#0066ff;stroke-linecap:square;"/>
   </g>
   <g id="line2d_92">
    <path clip-path="url(#pe89d391023)" d="M 53.707733 199.969951 
L 61.852486 201.042593 
L 69.60142 202.288401 
L 76.928623 203.692168 
L 84.045375 205.282591 
L 91.088007 207.086546 
L 98.124286 209.119637 
L 105.368757 211.446072 
L 113.093843 214.164225 
L 121.875993 217.497992 
L 134.408949 222.522252 
L 149.464685 228.509621 
L 157.564757 231.481016 
L 164.400314 233.754026 
L 170.613888 235.589425 
L 176.498796 237.097632 
L 182.230428 238.33796 
L 187.917092 239.341256 
L 187.92 239.341712 
L 208.076969 241.226183 
L 219.868039 241.493784 
L 257.651654 241.610996 
L 330.994809 241.645714 
L 388.8 241.645714 
L 388.8 241.645714 
" style="fill:none;stroke:#0066ff;stroke-linecap:square;"/>
   </g>
   <g id="line2d_93">
    <path clip-path="url(#pe89d391023)" d="M 53.707733 203.762951 
L 62.293106 204.800558 
L 70.273828 205.988837 
L 77.839491 207.339447 
L 85.162036 208.87242 
L 92.359482 210.606576 
L 99.555266 212.568809 
L 106.964588 214.820923 
L 114.903872 217.471205 
L 124.047177 220.767655 
L 139.31761 226.559454 
L 150.651367 230.744552 
L 158.330932 233.34752 
L 164.918002 235.349511 
L 170.92334 236.944946 
L 176.636292 238.234402 
L 182.226892 239.269003 
L 187.838461 240.080934 
L 187.92 240.091102 
L 208.076969 241.423854 
L 228.233937 241.575059 
L 347.419861 241.645714 
L 388.8 241.645714 
L 388.8 241.645714 
" style="fill:none;stroke:#0066ff;stroke-linecap:square;"/>
   </g>
   <g id="line2d_94">
    <path clip-path="url(#pe89d391023)" d="M 53.707733 207.555139 
L 62.727149 208.545515 
L 71.093047 209.689855 
L 78.970188 210.992884 
L 86.523907 212.467262 
L 93.948142 214.142949 
L 101.378899 216.04875 
L 109.052375 218.24932 
L 117.308576 220.854202 
L 127.121557 224.195352 
L 153.512403 233.315672 
L 160.612156 235.442057 
L 166.817245 237.071404 
L 172.600885 238.362586 
L 178.192789 239.384401 
L 183.769759 240.176924 
L 187.92 240.625629 
L 208.076969 241.523463 
L 244.507765 241.612024 
L 367.876939 241.645714 
L 388.8 241.645714 
L 388.8 241.645714 
" style="fill:none;stroke:#0066ff;stroke-linecap:square;"/>
   </g>
   <g id="line2d_95">
    <path clip-path="url(#pe89d391023)" d="M 53.707733 211.346499 
L 63.154809 212.277352 
L 71.889819 213.36139 
L 80.058561 214.597789 
L 87.915577 216.010719 
L 95.593964 217.616591 
L 103.30911 219.458491 
L 111.244976 221.583726 
L 119.923949 224.143607 
L 130.972329 227.651954 
L 149.983798 233.710912 
L 157.51516 235.849939 
L 163.972799 237.456454 
L 169.860731 238.694849 
L 175.517679 239.658251 
L 181.156991 240.392591 
L 187.022241 240.930036 
L 187.92 240.993768 
L 208.076969 241.573261 
L 285.84217 241.644726 
L 388.8 241.645714 
L 388.8 241.645714 
" style="fill:none;stroke:#0066ff;stroke-linecap:square;"/>
   </g>
   <g id="line2d_96">
    <path clip-path="url(#pe89d391023)" d="M 53.707733 215.137012 
L 63.784733 216.01662 
L 72.96985 217.041035 
L 81.562056 218.222091 
L 89.758388 219.571643 
L 97.803661 221.122126 
L 105.861656 222.903218 
L 114.251981 224.98866 
L 123.731654 227.582352 
L 139.793216 232.260238 
L 150.504337 235.254922 
L 157.893259 237.09411 
L 164.275997 238.457573 
L 170.183611 239.494319 
L 175.946607 240.280141 
L 181.831622 240.856643 
L 187.92 241.239621 
L 208.076969 241.599192 
L 352.09162 241.645714 
L 388.8 241.645714 
L 388.8 241.645714 
" style="fill:none;stroke:#0066ff;stroke-linecap:square;"/>
   </g>
   <g id="line2d_97">
    <path clip-path="url(#pe89d391023)" d="M 53.707733 218.926668 
L 64.401301 219.736671 
L 74.156969 220.695994 
L 83.205451 221.806238 
L 91.88917 223.095279 
L 100.333983 224.57361 
L 108.876662 226.297115 
L 117.928372 228.354706 
L 128.967463 231.106424 
L 150.112141 236.424721 
L 157.606023 238.039057 
L 164.098417 239.212819 
L 170.167552 240.085605 
L 176.182678 240.725234 
L 182.51548 241.171598 
L 187.92 241.399377 
L 208.076969 241.613919 
L 388.8 241.645714 
L 388.8 241.645714 
" style="fill:none;stroke:#0066ff;stroke-linecap:square;"/>
   </g>
   <g id="line2d_98">
    <path clip-path="url(#pe89d391023)" d="M 53.707733 222.71545 
L 65.400724 223.466775 
L 75.851449 224.357755 
L 85.557693 225.406224 
L 94.818442 226.630649 
L 103.837858 228.047978 
L 113.055705 229.723677 
L 123.359165 231.8307 
L 154.739369 238.430411 
L 161.721225 239.544697 
L 168.167333 240.349834 
L 174.553 240.922546 
L 181.361758 241.305574 
L 187.92 241.500445 
L 219.868039 241.627036 
L 388.8 241.645714 
L 388.8 241.645714 
" style="fill:none;stroke:#0066ff;stroke-linecap:square;"/>
   </g>
   <g id="line2d_99">
    <path clip-path="url(#pe89d391023)" d="M 53.707733 226.503343 
L 66.556387 227.177265 
L 78.094584 228.003599 
L 88.631437 228.979956 
L 98.630044 230.129096 
L 108.522019 231.49157 
L 118.974427 233.16055 
L 132.982788 235.646907 
L 148.465644 238.345867 
L 156.769362 239.561423 
L 163.946284 240.389604 
L 170.850208 240.961993 
L 178.107336 241.336615 
L 186.71167 241.547528 
L 187.92 241.563036 
L 240.025008 241.636797 
L 388.8 241.645714 
L 388.8 241.645714 
" style="fill:none;stroke:#0066ff;stroke-linecap:square;"/>
   </g>
   <g id="line2d_100">
    <path clip-path="url(#pe89d391023)" d="M 53.707733 230.29033 
L 68.385944 230.885282 
L 81.22193 231.623561 
L 92.974963 232.520719 
L 104.150553 233.597206 
L 115.506411 234.917477 
L 129.362226 236.768423 
L 149.223626 239.417157 
L 158.072366 240.351177 
L 165.920329 240.956847 
L 173.844484 241.341828 
L 183.011999 241.554504 
L 187.92 241.601206 
L 279.101296 241.645137 
L 388.8 241.645714 
L 388.8 241.645714 
" style="fill:none;stroke:#0066ff;stroke-linecap:square;"/>
   </g>
   <g id="line2d_101">
    <path clip-path="url(#pe89d391023)" d="M 53.707733 234.076398 
L 71.41438 234.57803 
L 86.523907 235.224584 
L 100.21553 236.031675 
L 113.622591 237.046945 
L 129.816109 238.513678 
L 150.176101 240.334494 
L 160.185102 240.990176 
L 169.479451 241.374487 
L 179.935452 241.574509 
L 187.92 241.623971 
L 363.154343 241.645714 
L 388.8 241.645714 
L 388.8 241.645714 
" style="fill:none;stroke:#0066ff;stroke-linecap:square;"/>
   </g>
   <g id="line2d_102">
    <path clip-path="url(#pe89d391023)" d="M 53.707733 237.861531 
L 78.094584 238.243257 
L 97.86807 238.77087 
L 116.472396 239.492085 
L 161.949419 241.398337 
L 175.312036 241.592483 
L 187.92 241.637569 
L 388.8 241.645714 
L 388.8 241.645714 
" style="fill:none;stroke:#0066ff;stroke-linecap:square;"/>
   </g>
   <g id="patch_3">
    <path d="M 54 252 
L 54 34.56 
" style="fill:none;stroke:#000000;stroke-linecap:square;stroke-linejoin:miter;stroke-width:0.8;"/>
   </g>
   <g id="patch_4">
    <path d="M 388.8 252 
L 388.8 34.56 
" style="fill:none;stroke:#000000;stroke-linecap:square;stroke-linejoin:miter;stroke-width:0.8;"/>
   </g>
   <g id="patch_5">
    <path d="M 54 252 
L 388.8 252 
" style="fill:none;stroke:#000000;stroke-linecap:square;stroke-linejoin:miter;stroke-width:0.8;"/>
   </g>
   <g id="patch_6">
    <path d="M 54 34.56 
L 388.8 34.56 
" style="fill:none;stroke:#000000;stroke-linecap:square;stroke-linejoin:miter;stroke-width:0.8;"/>
   </g>
  </g>
 </g>
 <defs>
  <clipPath id="pe89d391023">
   <rect height="217.44" width="334.8" x="54" y="34.56"/>
  </clipPath>
 </defs>
</svg>
