<?xml version="1.0" encoding="utf-8" standalone="no"?>
<!DOCTYPE svg PUBLIC "-//W3C//DTD SVG 1.1//EN"
  "http://www.w3.org/Graphics/SVG/1.1/DTD/svg11.dtd">
<!-- Created with matplotlib (http://matplotlib.org/) -->
<svg height="288pt" version="1.1" viewBox="0 0 432 288" width="432pt" xmlns="http://www.w3.org/2000/svg" xmlns:xlink="http://www.w3.org/1999/xlink">
 <defs>
  <style type="text/css">
*{stroke-linecap:butt;stroke-linejoin:round;}
  </style>
 </defs>
 <g id="figure_1">
  <g id="patch_1">
   <path d="M 0 288 
L 432 288 
L 432 0 
L 0 0 
z
" style="fill:#ffffff;"/>
  </g>
  <g id="axes_1">
   <g id="patch_2">
    <path d="M 54 252 
L 388.8 252 
L 388.8 34.56 
L 54 34.56 
z
" style="fill:#ffffff;"/>
   </g>
   <g id="matplotlib.axis_1">
    <g id="xtick_1">
     <g id="line2d_1">
      <defs>
       <path d="M 0 0 
L 0 -3.5 
" id="m6c0db86dad" style="stroke:#000000;stroke-width:0.8;"/>
      </defs>
      <g>
       <use style="stroke:#000000;stroke-width:0.8;" x="93.183071" xlink:href="#m6c0db86dad" y="252"/>
      </g>
     </g>
     <g id="text_1">
      <text style="font-family:Arial;font-size:18px;font-style:normal;font-weight:normal;text-anchor:middle;" transform="rotate(-0, 93.183071, 268.384063)" x="93.183071" y="268.384063">−10</text>
     </g>
    </g>
    <g id="xtick_2">
     <g id="line2d_2">
      <g>
       <use style="stroke:#000000;stroke-width:0.8;" x="157.291536" xlink:href="#m6c0db86dad" y="252"/>
      </g>
     </g>
     <g id="text_2">
      <text style="font-family:Arial;font-size:18px;font-style:normal;font-weight:normal;text-anchor:middle;" transform="rotate(-0, 157.291536, 268.384063)" x="157.291536" y="268.384063">−5</text>
     </g>
    </g>
    <g id="xtick_3">
     <g id="line2d_3">
      <g>
       <use style="stroke:#000000;stroke-width:0.8;" x="221.4" xlink:href="#m6c0db86dad" y="252"/>
      </g>
     </g>
     <g id="text_3">
      <text style="font-family:Arial;font-size:18px;font-style:normal;font-weight:normal;text-anchor:middle;" transform="rotate(-0, 221.4, 268.384063)" x="221.4" y="268.384063">0</text>
     </g>
    </g>
    <g id="xtick_4">
     <g id="line2d_4">
      <g>
       <use style="stroke:#000000;stroke-width:0.8;" x="285.508464" xlink:href="#m6c0db86dad" y="252"/>
      </g>
     </g>
     <g id="text_4">
      <text style="font-family:Arial;font-size:18px;font-style:normal;font-weight:normal;text-anchor:middle;" transform="rotate(-0, 285.508464, 268.384063)" x="285.508464" y="268.384063">5</text>
     </g>
    </g>
    <g id="xtick_5">
     <g id="line2d_5">
      <g>
       <use style="stroke:#000000;stroke-width:0.8;" x="349.616929" xlink:href="#m6c0db86dad" y="252"/>
      </g>
     </g>
     <g id="text_5">
      <text style="font-family:Arial;font-size:18px;font-style:normal;font-weight:normal;text-anchor:middle;" transform="rotate(-0, 349.616929, 268.384063)" x="349.616929" y="268.384063">10</text>
     </g>
    </g>
    <g id="text_6">
     <text style="font-family:Arial;font-size:18px;font-style:normal;font-weight:normal;text-anchor:middle;" transform="rotate(-0, 221.4, 289.065)" x="221.4" y="289.065">Cycle affinity (kJ/mol)</text>
    </g>
   </g>
   <g id="matplotlib.axis_2">
    <g id="ytick_1">
     <g id="line2d_6">
      <defs>
       <path d="M 0 0 
L 3.5 0 
" id="m6bd070b381" style="stroke:#000000;stroke-width:0.8;"/>
      </defs>
      <g>
       <use style="stroke:#000000;stroke-width:0.8;" x="54" xlink:href="#m6bd070b381" y="198.325005"/>
      </g>
     </g>
     <g id="text_7">
      <text style="font-family:Arial;font-size:18px;font-style:normal;font-weight:normal;text-anchor:end;" transform="rotate(-0, 50.5, 204.767036)" x="50.5" y="204.767036">0</text>
     </g>
    </g>
    <g id="ytick_2">
     <g id="line2d_7">
      <g>
       <use style="stroke:#000000;stroke-width:0.8;" x="54" xlink:href="#m6bd070b381" y="127.479416"/>
      </g>
     </g>
     <g id="text_8">
      <text style="font-family:Arial;font-size:18px;font-style:normal;font-weight:normal;text-anchor:end;" transform="rotate(-0, 50.5, 133.921447)" x="50.5" y="133.921447">5</text>
     </g>
    </g>
    <g id="ytick_3">
     <g id="line2d_8">
      <g>
       <use style="stroke:#000000;stroke-width:0.8;" x="54" xlink:href="#m6bd070b381" y="56.633827"/>
      </g>
     </g>
     <g id="text_9">
      <text style="font-family:Arial;font-size:18px;font-style:normal;font-weight:normal;text-anchor:end;" transform="rotate(-0, 50.5, 63.075858)" x="50.5" y="63.075858">10</text>
     </g>
    </g>
    <g id="text_10">
     <text style="font-family:Arial;font-size:18px;font-style:normal;font-weight:normal;text-anchor:middle;" transform="rotate(-90, 22.692187, 143.28)" x="22.692187" y="143.28">Cycle flux (mM/s)</text>
    </g>
   </g>
   <g id="line2d_9">
    <path clip-path="url(#p7a6930a4ed)" d="M 54 198.325005 
L 388.8 198.325005 
" style="fill:none;stroke:#d3d3d3;stroke-linecap:square;stroke-width:1.5;"/>
   </g>
   <g id="line2d_10">
    <path clip-path="url(#p7a6930a4ed)" d="M 221.4 252 
L 221.4 34.56 
" style="fill:none;stroke:#d3d3d3;stroke-linecap:square;stroke-width:1.5;"/>
   </g>
   <g id="line2d_11">
    <path clip-path="url(#p7a6930a4ed)" d="M 69.218182 242.116364 
L 75.305455 242.002635 
L 81.392727 241.86607 
L 87.48 241.702123 
L 93.567273 241.505363 
L 99.654545 241.269307 
L 105.741818 240.986226 
L 111.829091 240.646927 
L 117.916364 240.240492 
L 124.003636 239.753995 
L 130.090909 239.172175 
L 136.178182 238.477084 
L 142.265455 237.64771 
L 148.352727 236.659588 
L 154.44 235.484429 
L 160.527273 234.089785 
L 166.614545 232.438813 
L 172.701818 230.490205 
L 178.789091 228.198358 
L 184.876364 225.513909 
L 190.963636 222.384743 
L 197.050909 218.757669 
L 203.138182 214.58078 
L 209.225455 209.806687 
L 215.312727 204.396592 
L 221.4 198.325005 
L 227.487273 191.584849 
L 233.574545 184.192368 
L 239.661818 176.191102 
L 245.749091 167.654109 
L 251.836364 158.683628 
L 257.923636 149.407719 
L 264.010909 139.973798 
L 270.098182 130.539687 
L 276.185455 121.263218 
L 282.272727 112.291847 
L 288.36 103.753686 
L 294.447273 95.751043 
L 300.534545 88.357045 
L 306.621818 81.615303 
L 312.709091 75.54212 
L 318.796364 70.130469 
L 324.883636 65.354902 
L 330.970909 61.176639 
L 337.058182 57.548313 
L 343.145455 54.418026 
L 349.232727 51.732575 
L 355.32 49.43985 
L 361.407273 47.490479 
L 367.494545 45.838847 
L 373.581818 44.443636 
" style="fill:none;stroke:#0066ff;stroke-linecap:square;stroke-width:3;"/>
   </g>
   <g id="patch_3">
    <path d="M 54 252 
L 54 34.56 
" style="fill:none;stroke:#000000;stroke-linecap:square;stroke-linejoin:miter;stroke-width:0.8;"/>
   </g>
   <g id="patch_4">
    <path d="M 388.8 252 
L 388.8 34.56 
" style="fill:none;stroke:#000000;stroke-linecap:square;stroke-linejoin:miter;stroke-width:0.8;"/>
   </g>
   <g id="patch_5">
    <path d="M 54 252 
L 388.8 252 
" style="fill:none;stroke:#000000;stroke-linecap:square;stroke-linejoin:miter;stroke-width:0.8;"/>
   </g>
   <g id="patch_6">
    <path d="M 54 34.56 
L 388.8 34.56 
" style="fill:none;stroke:#000000;stroke-linecap:square;stroke-linejoin:miter;stroke-width:0.8;"/>
   </g>
  </g>
 </g>
 <defs>
  <clipPath id="p7a6930a4ed">
   <rect height="217.44" width="334.8" x="54" y="34.56"/>
  </clipPath>
 </defs>
</svg>
